<svg width="20" height="24" viewBox="0 0 20 24" fill="none" xmlns="http://www.w3.org/2000/svg">
<path d="M14.228 23.32C12.6707 23.32 11.2307 23.0427 9.908 22.488C8.58533 21.9333 7.444 21.1547 6.484 20.152C5.524 19.128 4.77733 17.912 4.244 16.504C3.71067 15.096 3.444 13.528 3.444 11.8C3.444 10.1573 3.71067 8.65333 4.244 7.288C4.77733 5.90133 5.53467 4.696 6.516 3.672C7.49733 2.62667 8.63867 1.82667 9.94 1.272C11.2627 0.695999 12.692 0.407999 14.228 0.407999C14.8467 0.407999 15.4547 0.471999 16.052 0.599998C16.6493 0.706665 17.2253 0.877332 17.78 1.112C18.356 1.32533 18.8893 1.592 19.38 1.912L17.812 4.568C17.2787 4.20533 16.7027 3.93867 16.084 3.768C15.4653 3.576 14.8467 3.48 14.228 3.48C13.1187 3.48 12.0947 3.68267 11.156 4.088C10.2173 4.49333 9.396 5.06933 8.692 5.816C8.00933 6.56267 7.476 7.448 7.092 8.472C6.72933 9.47467 6.548 10.584 6.548 11.8C6.548 13.08 6.72933 14.2427 7.092 15.288C7.476 16.312 7.99867 17.1973 8.66 17.944C9.34267 18.6907 10.1533 19.2667 11.092 19.672C12.0307 20.056 13.076 20.248 14.228 20.248C14.676 20.248 15.1027 20.2053 15.508 20.12C15.9133 20.0347 16.308 19.9067 16.692 19.736C17.076 19.5653 17.4493 19.3627 17.812 19.128L19.412 21.816C18.8787 22.136 18.324 22.4133 17.748 22.648C17.172 22.8613 16.5853 23.0213 15.988 23.128C15.3907 23.256 14.804 23.32 14.228 23.32ZM0.98 15.896V12.888L13.844 12.952V15.928L0.98 15.896ZM0.98 11.224V8.248L13.844 8.28V11.256L0.98 11.224Z" fill="#463B73"/>
</svg>
