<svg width="44" height="24" viewBox="0 0 44 24" fill="none" xmlns="http://www.w3.org/2000/svg">
<path d="M11.652 23.32C10.0307 23.32 8.516 23.032 7.108 22.456C5.7 21.8587 4.46267 21.0373 3.396 19.992C2.32933 18.9467 1.49733 17.7307 0.9 16.344C0.324 14.936 0.036 13.4213 0.036 11.8C0.036 10.2 0.324 8.70667 0.9 7.32C1.49733 5.93333 2.31867 4.728 3.364 3.704C4.43067 2.65867 5.668 1.848 7.076 1.272C8.484 0.695999 9.99867 0.407999 11.62 0.407999C12.7507 0.407999 13.8493 0.567999 14.916 0.887999C16.004 1.208 16.9853 1.656 17.86 2.232C18.7347 2.808 19.4493 3.46933 20.004 4.216L17.764 6.552C17.124 5.93333 16.4627 5.42133 15.78 5.016C15.1187 4.61067 14.436 4.30133 13.732 4.088C13.028 3.87467 12.324 3.768 11.62 3.768C10.468 3.768 9.40133 3.97067 8.42 4.376C7.46 4.78133 6.60667 5.34667 5.86 6.072C5.13467 6.79733 4.56933 7.65067 4.164 8.632C3.75867 9.592 3.556 10.648 3.556 11.8C3.556 12.9093 3.76933 13.9653 4.196 14.968C4.62267 15.9493 5.20933 16.8133 5.956 17.56C6.724 18.3067 7.59867 18.8933 8.58 19.32C9.58267 19.7467 10.6387 19.96 11.748 19.96C12.58 19.96 13.3693 19.8427 14.116 19.608C14.8627 19.352 15.524 19 16.1 18.552C16.676 18.104 17.124 17.592 17.444 17.016C17.764 16.4187 17.924 15.7893 17.924 15.128V14.488L18.404 14.936H11.556V11.512H21.476C21.5187 11.7467 21.5507 11.9813 21.572 12.216C21.5933 12.4293 21.604 12.6427 21.604 12.856C21.6253 13.048 21.636 13.24 21.636 13.432C21.636 14.904 21.38 16.248 20.868 17.464C20.356 18.6587 19.6413 19.6933 18.724 20.568C17.828 21.4427 16.772 22.1253 15.556 22.616C14.3613 23.0853 13.06 23.32 11.652 23.32ZM26.136 23V0.599998H35.48C36.9093 0.599998 38.1147 0.813332 39.096 1.24C40.0773 1.66667 40.8133 2.30667 41.304 3.16C41.816 3.992 42.072 5.016 42.072 6.232C42.072 7.448 41.7307 8.48267 41.048 9.336C40.3867 10.1893 39.4587 10.776 38.264 11.096V10.456C39.2667 10.6693 40.1413 11.0533 40.888 11.608C41.6347 12.1413 42.2107 12.8133 42.616 13.624C43.0427 14.4347 43.256 15.3627 43.256 16.408C43.256 17.4747 43.0853 18.424 42.744 19.256C42.424 20.0667 41.9333 20.7493 41.272 21.304C40.632 21.8587 39.8533 22.2853 38.936 22.584C38.0187 22.8613 36.9733 23 35.8 23H26.136ZM29.592 19.672H35.608C36.4827 19.672 37.2187 19.544 37.816 19.288C38.4347 19.032 38.904 18.6587 39.224 18.168C39.5653 17.656 39.736 17.048 39.736 16.344C39.736 15.6827 39.5547 15.1173 39.192 14.648C38.8507 14.1787 38.36 13.8267 37.72 13.592C37.08 13.336 36.3227 13.208 35.448 13.208H29.592V19.672ZM29.592 9.88H35.288C35.928 9.88 36.4933 9.752 36.984 9.496C37.496 9.24 37.8907 8.888 38.168 8.44C38.4667 7.992 38.616 7.48 38.616 6.904C38.616 5.944 38.296 5.208 37.656 4.696C37.016 4.184 36.0987 3.928 34.904 3.928H29.592V9.88Z" fill="#463B73"/>
</svg>
