<svg width="190" height="202" viewBox="0 0 190 202" fill="none" xmlns="http://www.w3.org/2000/svg">
<path d="M112.363 199.808C101.775 199.173 91.1862 199.173 80.7213 198.943C70.2564 198.714 60.0032 198.326 49.556 198.043C39.1087 197.761 28.7144 197.443 18.3553 196.702C14.3493 196.42 10.6963 195.361 8.75511 191.796C6.99037 188.619 6.86684 184.737 6.61977 181.296C5.24327 161.507 4.27855 141.701 3.7256 121.877C3.17264 102.053 3.10793 82.1995 3.53147 62.3168C3.53147 57.3225 3.7256 52.3283 3.88442 47.3517C4.00796 42.8693 3.77854 38.0162 5.7727 33.8338C7.76686 29.6514 11.0669 26.6337 14.0846 23.4042C17.5082 19.7335 20.926 16.0511 24.3378 12.3569C26.1025 10.4686 27.5849 8.43917 29.2791 6.5156C29.4132 6.33539 29.4766 6.11222 29.4572 5.88839C29.4379 5.66457 29.337 5.45563 29.1739 5.30118C29.0107 5.14673 28.7966 5.05749 28.572 5.05039C28.3475 5.04328 28.1281 5.1188 27.9555 5.26263C26.1908 7.02737 24.0907 8.79211 22.273 10.698C20.4554 12.604 18.5318 14.5099 16.7317 16.2746C13.3081 19.8041 9.67278 23.3336 6.54918 27.0219C5.04126 28.6928 3.77049 30.5634 2.77263 32.5808C1.83835 34.6488 1.24251 36.8534 1.00789 39.1104C0.407878 43.9987 0.513762 49.0282 0.407878 53.9519C-0.0980154 74.1758 -0.133313 94.4174 0.301991 114.677C0.737294 134.936 1.61967 155.301 2.9491 175.772C3.03648 180.105 3.46131 184.424 4.21972 188.69C4.53407 190.542 5.23769 192.307 6.28412 193.868C7.33056 195.428 8.69604 196.749 10.2904 197.743C14.3493 200.02 19.5553 199.773 24.0907 199.967L40.1146 200.602C61.5562 201.378 82.9978 201.696 104.439 201.678C107.087 201.678 109.734 201.573 112.363 201.431C112.49 201.469 112.623 201.477 112.753 201.454C112.883 201.431 113.006 201.378 113.111 201.299C113.217 201.22 113.303 201.118 113.362 201C113.421 200.882 113.452 200.752 113.452 200.62C113.452 200.488 113.421 200.358 113.362 200.24C113.303 200.122 113.217 200.019 113.111 199.94C113.006 199.862 112.883 199.809 112.753 199.786C112.623 199.763 112.49 199.77 112.363 199.808Z" fill="black"/>
<path d="M112.381 1.23876C108.791 0.92137 105.184 0.815302 101.581 0.921105C98.0517 0.921105 94.5222 0.921105 90.9927 0.921105C83.9337 0.921105 76.7512 0.921105 69.6217 0.921105C62.4921 0.921105 55.5037 1.00934 48.4448 1.07993C42.1446 1.07993 35.5798 0.832868 30.0032 4.0447C27.4388 5.57037 25.1383 7.50129 23.1913 9.76246C22.2207 10.839 21.3207 11.9507 20.4736 13.0978C19.6068 14.3798 18.8057 15.7051 18.0735 17.0685C17.8088 17.545 18.4971 18.1097 18.903 17.6685C19.803 16.6803 20.6677 15.7802 21.656 14.792C22.6442 13.8037 23.4207 12.7625 24.3384 11.7743C26.0575 9.87691 28.0149 8.21009 30.162 6.81535C32.6362 5.22786 35.4454 4.23708 38.3681 3.92117C41.5799 3.56822 44.827 3.6741 48.0565 3.63881C61.8568 3.49763 75.6571 3.17997 89.4574 2.89761C93.2869 2.89761 97.0987 2.70349 100.911 2.61526C104.777 2.64855 108.642 2.46 112.487 2.05054C112.946 1.92701 112.787 1.27405 112.381 1.23876Z" fill="black"/>
<path d="M77.4043 199.808C87.9927 199.173 98.5812 199.173 109.028 198.943C119.476 198.714 129.817 198.343 140.211 197.973C150.606 197.602 161.035 197.373 171.412 196.631C175.4 196.349 179.053 195.29 181.012 191.725C182.777 188.549 182.901 184.666 183.13 181.225C184.518 161.437 185.483 141.63 186.024 121.806C186.565 101.982 186.665 82.1584 186.324 62.3345C186.23 57.3343 186.112 52.346 185.971 47.3694C185.83 42.887 186.059 38.0339 184.083 33.8515C182.106 29.6691 178.789 26.6514 175.753 23.4219C172.33 19.7512 168.918 16.0688 165.518 12.3746C163.753 10.4863 162.253 8.45687 160.559 6.5333C160.425 6.35309 160.361 6.12992 160.381 5.90609C160.4 5.68227 160.501 5.47332 160.664 5.31887C160.827 5.16441 161.041 5.07519 161.266 5.06809C161.491 5.06098 161.71 5.13649 161.883 5.28032C163.753 7.04506 165.747 8.80981 167.583 10.7157L173.036 16.2747C176.442 19.8042 180.095 23.3336 183.201 27.0219C184.742 28.7051 186.043 30.5937 187.065 32.6338C187.993 34.7042 188.588 36.9077 188.83 39.1634C189.43 44.0517 189.307 49.0812 189.43 54.0049C189.924 74.2288 189.924 94.4704 189.43 114.73C188.936 134.989 188.054 155.354 186.783 175.825C186.704 180.158 186.28 184.478 185.512 188.743C185.206 190.596 184.507 192.362 183.463 193.923C182.419 195.484 181.054 196.805 179.459 197.796C175.4 200.073 170.194 199.826 165.641 200.02C160.312 200.243 154.971 200.455 149.618 200.655C128.194 201.431 106.752 201.749 85.2927 201.731C82.6632 201.731 79.9985 201.626 77.3866 201.484C77.2662 201.501 77.1437 201.491 77.0274 201.455C76.9112 201.42 76.8039 201.36 76.7128 201.28C76.6218 201.199 76.5491 201.1 76.4998 200.989C76.4504 200.878 76.4255 200.757 76.4268 200.636C76.4281 200.514 76.4555 200.395 76.5072 200.285C76.5588 200.175 76.6336 200.077 76.7263 199.999C76.819 199.92 76.9276 199.862 77.0445 199.829C77.1615 199.797 77.2842 199.789 77.4043 199.808Z" fill="black"/>
<path d="M77.3873 1.23877C80.9956 0.918767 84.6197 0.812697 88.2405 0.921117C91.77 0.921117 95.2995 0.921117 98.829 0.921117C105.888 0.921117 113.07 0.921117 120.2 0.921117C127.33 0.921117 134.318 1.00935 141.377 1.07994C147.659 1.07994 154.242 0.83288 159.818 4.04471C162.383 5.57038 164.683 7.5013 166.63 9.76248C167.583 10.839 168.501 11.9508 169.33 13.0978C170.204 14.3758 171.005 15.7014 171.73 17.0685C171.785 17.1764 171.8 17.3003 171.772 17.4181C171.745 17.5359 171.676 17.6401 171.578 17.712C171.481 17.784 171.361 17.8191 171.241 17.8111C171.12 17.8032 171.006 17.7526 170.919 17.6685C170.001 16.6803 169.048 15.7803 168.166 14.792C167.283 13.8037 166.401 12.7625 165.483 11.7743C163.76 9.88098 161.803 8.21463 159.66 6.81536C157.163 5.22052 154.329 4.22957 151.383 3.92118C148.189 3.56823 144.924 3.67412 141.712 3.63882C127.894 3.49764 114.094 3.17999 100.294 2.89763C96.4818 2.89763 92.6523 2.70351 88.8405 2.61527C84.9799 2.64812 81.1205 2.45957 77.2814 2.05055C76.7697 1.92702 76.9638 1.27407 77.3873 1.23877Z" fill="black"/>
<path d="M77.8448 27.5334C71.3858 27.0922 64.9269 27.2334 58.4326 27.3922C51.9384 27.551 45.7971 27.7099 39.4793 27.8863L20.3142 28.4158C15.6553 28.5569 10.4669 28.6805 6.56685 31.4158C1.81969 34.7159 1.27262 40.2395 1.66086 45.5338C1.68695 45.6952 1.76966 45.842 1.89415 45.948C2.01864 46.0539 2.1768 46.1122 2.34029 46.1122C2.50378 46.1122 2.66194 46.0539 2.78643 45.948C2.91092 45.842 2.99362 45.6952 3.01971 45.5338C3.58443 41.3866 3.97267 36.2159 7.80216 33.4982C11.6317 30.7805 16.7671 30.9746 21.1966 30.8511C33.2321 30.5158 45.2853 30.1982 57.3385 29.7923C64.1857 29.5628 71.0329 29.3687 77.8272 28.504C77.8909 28.5052 77.9542 28.4937 78.0135 28.4704C78.0729 28.4471 78.127 28.4123 78.1729 28.3681C78.2188 28.3238 78.2555 28.271 78.281 28.2126C78.3064 28.1541 78.3201 28.0913 78.3213 28.0275C78.3224 27.9638 78.311 27.9005 78.2877 27.8411C78.2644 27.7818 78.2296 27.7277 78.1854 27.6818C78.1411 27.6359 78.0883 27.5992 78.0299 27.5737C77.9714 27.5482 77.9085 27.5345 77.8448 27.5334Z" fill="black"/>
<path d="M186.377 34.8395C185.472 33.2738 184.191 31.9575 182.651 31.0088C181.111 30.0601 179.36 29.5087 177.554 29.4041C172.612 28.8394 167.548 28.8217 162.589 28.6099C157.63 28.3982 152.636 28.1864 147.659 28.0276C127.47 27.3217 107.27 27.0687 87.0577 27.2687C75.6222 27.3923 64.1161 27.7629 52.7864 28.7335C52.7162 28.7335 52.6489 28.7614 52.5993 28.811C52.5496 28.8607 52.5217 28.928 52.5217 28.9982C52.5217 29.0684 52.5496 29.1357 52.5993 29.1854C52.6489 29.235 52.7162 29.2629 52.7864 29.2629C72.4104 29.7394 92.0343 29.3864 111.658 29.5982C131.282 29.81 150.747 30.4276 170.265 31.363C172.903 31.4041 175.536 31.5867 178.154 31.91C180.131 32.1911 181.977 33.0648 183.448 34.4159C186.43 37.0631 186.977 41.0867 188.336 44.4926C188.478 44.8632 189.113 44.8456 189.113 44.3867C189.016 41.0253 188.076 37.7421 186.377 34.8395Z" fill="black"/>
<path d="M187.859 83.4758C184.789 83.2641 181.665 83.4758 178.594 83.4758H151.488C139.358 83.4758 127.229 83.4758 115.099 83.4758C91.0043 83.4758 66.8861 83.3876 42.7445 83.2111L22.2558 83.0876C15.4262 83.0876 8.5614 82.8582 1.7495 83.1935C1.61888 83.1672 1.48405 83.1703 1.35477 83.2024C1.22548 83.2346 1.10495 83.2951 1.00187 83.3795C0.898796 83.464 0.81575 83.5702 0.758726 83.6906C0.701701 83.811 0.672119 83.9426 0.672119 84.0758C0.672119 84.2091 0.701701 84.3406 0.758726 84.461C0.81575 84.5815 0.898796 84.6877 1.00187 84.7721C1.10495 84.8565 1.22548 84.917 1.35477 84.9492C1.48405 84.9814 1.61888 84.9845 1.7495 84.9582C7.83786 85.3817 13.9439 85.3641 20.0499 85.417L38.1208 85.6112C50.2505 85.7288 62.3743 85.8347 74.4922 85.9288C98.5986 86.1053 122.717 86.2053 146.847 86.2288H177.5C179.636 86.2288 181.806 86.2288 183.977 86.2288C184.047 86.4639 184.2 86.6655 184.408 86.7955C184.616 86.9255 184.864 86.975 185.106 86.9347C186.166 86.7251 187.21 86.4421 188.23 86.0876C188.511 85.974 188.747 85.7694 188.898 85.5064C189.05 85.2434 189.109 84.9373 189.066 84.6367C189.024 84.3362 188.882 84.0586 188.663 83.8482C188.444 83.6378 188.161 83.5067 187.859 83.4758Z" fill="black"/>
<path d="M184.365 143.954C172.524 143.177 160.647 142.771 148.788 142.33C136.929 141.889 125.352 141.554 113.634 141.324C90.1281 140.83 66.6041 140.636 43.0448 140.883C36.4446 140.883 29.8621 141.06 23.262 141.183C16.6618 141.307 9.90288 141.36 3.26745 141.977C3.13021 141.959 2.99058 141.97 2.85793 142.009C2.72528 142.049 2.60269 142.117 2.49838 142.208C2.39407 142.299 2.31047 142.412 2.25318 142.538C2.1959 142.664 2.16626 142.801 2.16626 142.939C2.16626 143.078 2.1959 143.215 2.25318 143.341C2.31047 143.467 2.39407 143.579 2.49838 143.67C2.60269 143.761 2.72528 143.829 2.85793 143.869C2.99058 143.909 3.13021 143.92 3.26745 143.901C9.19698 144.148 15.1265 143.901 21.0737 143.901C27.0209 143.901 32.9328 143.724 38.8623 143.672C50.5978 143.583 62.3157 143.53 74.0336 143.583C97.5635 143.689 121.093 144.13 144.623 144.907C157.859 145.348 171.094 146.019 184.365 146.495C184.702 146.495 185.026 146.361 185.264 146.123C185.502 145.885 185.636 145.561 185.636 145.224C185.636 144.888 185.502 144.564 185.264 144.326C185.026 144.088 184.702 143.954 184.365 143.954Z" fill="black"/>
<path d="M169.17 161.389C168.955 161.021 168.63 160.73 168.24 160.556C167.851 160.382 167.418 160.334 167 160.419C165.87 160.419 164.741 160.719 163.611 160.842C161.494 161.054 159.376 161.195 157.258 161.266C152.988 161.424 148.717 161.389 144.464 161.266C140.211 161.142 135.905 160.966 131.634 160.913C127.274 160.662 122.899 160.845 118.575 161.46C117.499 161.654 117.816 163.224 118.84 163.224C122.952 163.436 127.081 163.224 131.193 163.33C135.305 163.436 139.452 163.701 143.546 163.895C147.641 164.089 151.805 164.23 155.9 164.16C157.894 164.16 159.87 164.054 161.847 163.895C162.835 163.895 163.823 163.736 164.811 163.613L166.488 163.419H167.017C167.38 163.566 167.781 163.589 168.158 163.484C168.535 163.378 168.866 163.151 169.1 162.836C169.253 162.629 169.342 162.381 169.354 162.123C169.367 161.866 169.303 161.61 169.17 161.389Z" fill="black"/>
<path d="M168.042 172.366C167.069 171.996 166.017 171.886 164.989 172.048H161.918C159.818 172.048 157.7 172.172 155.582 172.207C151.506 172.207 147.412 172.313 143.335 172.313C139.259 172.313 135.164 172.313 131.088 172.207L124.964 172.101C122.859 171.864 120.729 171.983 118.664 172.454C118.135 172.648 117.888 173.425 118.488 173.707C120.433 174.376 122.484 174.687 124.541 174.625C126.57 174.731 128.617 174.819 130.647 174.89C134.811 175.031 138.959 175.119 143.123 175.154C147.288 175.19 151.435 175.154 155.582 175.154C157.63 175.154 159.659 175.154 161.706 175.013L164.759 174.925C165.877 175.042 167.007 174.872 168.042 174.431C168.221 174.324 168.369 174.173 168.472 173.992C168.576 173.811 168.63 173.607 168.63 173.398C168.63 173.19 168.576 172.985 168.472 172.804C168.369 172.623 168.221 172.472 168.042 172.366Z" fill="black"/>
<path d="M28.8745 166.595C28.6407 165.268 27.9733 164.056 26.9769 163.149C25.9805 162.243 24.7115 161.692 23.3685 161.583C21.8703 161.477 20.3797 161.875 19.1331 162.713C18.5136 163.123 17.9801 163.651 17.5625 164.266C16.7194 165.248 16.2562 166.5 16.2566 167.795C16.2634 169.118 16.7175 170.399 17.5449 171.431C18.491 172.496 19.7528 173.232 21.1464 173.531C22.54 173.829 23.9925 173.674 25.2921 173.089C26.5426 172.581 27.5807 171.658 28.2328 170.476C28.8848 169.294 29.1114 167.924 28.8745 166.595ZM26.4745 168.925C26.2328 169.768 25.6855 170.492 24.9391 170.954C24.1445 171.458 23.2196 171.718 22.2788 171.702C21.338 171.687 20.4223 171.396 19.6449 170.866C19.0517 170.4 18.5809 169.796 18.2734 169.108C17.9659 168.419 17.8309 167.666 17.8802 166.913C18.052 166.875 18.2069 166.782 18.3213 166.648C18.4625 166.454 18.639 166.295 18.7802 166.119C18.8922 165.946 19.016 165.781 19.1508 165.625C19.3004 165.446 19.4594 165.275 19.6273 165.113L19.892 164.901L20.0155 164.795C20.2109 164.655 20.4175 164.531 20.6332 164.425L20.9332 164.266H21.0743C21.3044 164.179 21.5403 164.108 21.7802 164.054H22.1861H22.3626C22.6093 164.036 22.857 164.036 23.1038 164.054H23.2979H23.6862L24.0038 164.142H24.1803C24.4175 164.257 24.6474 164.387 24.8685 164.53L24.9744 164.619C25.0765 164.691 25.1711 164.774 25.2568 164.866L25.4862 165.113L25.6097 165.272C25.7436 165.471 25.8673 165.677 25.9803 165.889V166.03C26.032 166.144 26.0734 166.262 26.1039 166.383C26.1848 166.608 26.2497 166.838 26.298 167.072V167.266C26.298 167.389 26.298 167.513 26.298 167.654C26.4494 168.059 26.5096 168.493 26.4745 168.925Z" fill="black"/>
<path d="M52.6268 161.972C51.4328 160.981 49.9456 160.411 48.3953 160.351C46.845 160.29 45.3179 160.742 44.0502 161.636C42.9864 162.43 42.2072 163.545 41.8288 164.817C41.4504 166.089 41.493 167.449 41.9501 168.695C41.9501 168.695 41.9501 168.872 41.9501 168.942C42.3923 170.067 43.1327 171.051 44.0917 171.787C45.0506 172.523 46.192 172.983 47.3932 173.119C48.5943 173.255 49.8098 173.062 50.9092 172.559C52.0085 172.056 52.9501 171.263 53.6327 170.266C54.1198 169.659 54.4807 168.96 54.6941 168.212C54.9076 167.463 54.9692 166.68 54.8755 165.907C54.7818 165.134 54.5346 164.388 54.1484 163.712C53.7623 163.036 53.2449 162.445 52.6268 161.972ZM52.6268 168.254C52.147 169.328 51.3025 170.197 50.2429 170.707C49.1833 171.218 47.9772 171.336 46.8385 171.042C45.6661 170.623 44.6789 169.805 44.0502 168.73C43.8716 168.435 43.7237 168.121 43.609 167.795C43.5191 167.072 43.5792 166.339 43.7857 165.641C43.9922 164.942 44.3406 164.294 44.809 163.736C45.5205 162.972 46.4713 162.473 47.5044 162.323C48.5376 162.172 49.5913 162.378 50.4915 162.907C51.4577 163.361 52.2106 164.171 52.5922 165.168C52.9739 166.165 52.9546 167.271 52.5386 168.254H52.6268Z" fill="black"/>
<path d="M166.718 104.512C162.8 104.229 158.812 104.388 154.894 104.335C150.976 104.282 146.988 104.335 143.053 104.335C139.117 104.335 135.164 104.335 131.211 104.335C127.316 104.285 123.422 104.456 119.546 104.847C118.381 105.006 118.787 106.612 119.811 106.612C123.729 106.947 127.717 106.735 131.652 106.735C135.588 106.735 139.4 106.735 143.264 106.735L154.894 106.877C158.812 106.877 162.8 107.159 166.718 106.982C166.918 107.06 167.135 107.087 167.348 107.062C167.561 107.036 167.765 106.96 167.942 106.838C168.119 106.717 168.264 106.554 168.364 106.364C168.464 106.173 168.517 105.962 168.517 105.747C168.517 105.532 168.464 105.321 168.364 105.131C168.264 104.941 168.119 104.778 167.942 104.656C167.765 104.534 167.561 104.458 167.348 104.433C167.135 104.407 166.918 104.435 166.718 104.512Z" fill="black"/>
<path d="M167.213 115.841C166.236 115.656 165.236 115.62 164.248 115.736L161.195 115.841L155.107 115.965C151.101 115.965 147.112 116.071 143.106 116.053C139.1 116.036 135.112 116.053 131.124 115.894C127.149 115.612 123.157 115.682 119.194 116.106C118.523 116.194 118.612 117.13 119.194 117.289C123.112 118.144 127.114 118.558 131.124 118.524C135.112 118.7 139.118 118.806 143.106 118.859C147.095 118.912 151.101 118.859 155.107 118.859C157.136 118.859 159.165 118.859 161.195 118.718C162.218 118.718 163.242 118.718 164.248 118.612C165.246 118.665 166.246 118.564 167.213 118.312C167.505 118.263 167.769 118.111 167.96 117.885C168.151 117.659 168.256 117.373 168.256 117.077C168.256 116.781 168.151 116.494 167.96 116.268C167.769 116.042 167.505 115.891 167.213 115.841Z" fill="black"/>
<path d="M167.177 61.9283C166.821 61.6604 166.411 61.4728 165.975 61.3783C165.54 61.2839 165.089 61.2849 164.654 61.3812L161.601 61.5047L155.495 61.6812C151.348 61.6812 147.218 61.8224 143.141 61.8224C139.065 61.8224 134.988 61.8224 130.929 61.6989L124.823 61.5753C122.795 61.3801 120.749 61.4871 118.753 61.893C118.241 62.0342 117.994 62.8459 118.594 63.093C120.465 63.6877 122.419 63.9855 124.382 63.9754L130.7 64.2754C134.777 64.4166 138.853 64.5048 142.912 64.5048C146.971 64.5048 151.065 64.5048 155.124 64.3989C157.171 64.3989 159.201 64.3989 161.23 64.2401L164.283 64.1166C165.36 64.1166 166.471 64.1166 167.248 63.4107C167.344 63.3104 167.418 63.1916 167.467 63.0616C167.516 62.9315 167.537 62.793 167.531 62.6543C167.524 62.5157 167.489 62.3798 167.429 62.255C167.368 62.1302 167.282 62.019 167.177 61.9283Z" fill="black"/>
<path d="M166.895 50.4221C158.812 50.4221 150.736 50.4633 142.665 50.5457C138.694 50.5457 134.724 50.7221 130.77 50.828C126.723 50.8453 122.68 51.1105 118.664 51.6221C117.782 51.7633 118.1 52.9281 118.876 52.9986C122.833 53.3018 126.804 53.3843 130.77 53.2457H142.877C150.889 53.1751 158.895 53.1751 166.895 53.2457C167.269 53.2457 167.628 53.097 167.893 52.8322C168.158 52.5674 168.307 52.2083 168.307 51.8339C168.307 51.4595 168.158 51.1004 167.893 50.8356C167.628 50.5709 167.269 50.4221 166.895 50.4221Z" fill="black"/>
<path d="M23.686 51.1987C22.6482 50.8657 21.5495 50.7674 20.4691 50.9108C19.3887 51.0543 18.3537 51.4359 17.4388 52.0281C16.8451 52.3975 16.3304 52.8809 15.9245 53.4504C15.5186 54.0198 15.2296 54.664 15.074 55.3458C14.9558 55.6093 14.8555 55.8805 14.774 56.1576C14.4215 57.5654 14.5266 59.0489 15.074 60.393C15.6817 61.8038 16.753 62.9647 18.1106 63.6836C19.4681 64.4025 21.0304 64.6362 22.5389 64.346C24.0576 64.173 25.4791 63.5117 26.5898 62.4615C27.7004 61.4113 28.4402 60.029 28.6979 58.5224C28.7674 56.9237 28.3165 55.3456 27.4128 54.025C26.509 52.7045 25.2013 51.7127 23.686 51.1987ZM22.8213 62.2989C21.8015 62.6483 20.6949 62.6508 19.6736 62.3061C18.6523 61.9614 17.7735 61.2888 17.1741 60.393C16.6167 59.4198 16.3762 58.2973 16.4858 57.1812C16.4858 57.1812 16.4858 57.1812 16.4858 57.0753C16.5744 56.4503 16.7909 55.8503 17.1219 55.3129C17.4529 54.7754 17.8912 54.312 18.4094 53.9517C19.5984 53.1628 21.0493 52.8713 22.4507 53.1399C23.5399 53.4018 24.518 54.0025 25.2441 54.8555C25.9703 55.7086 26.4072 56.77 26.4919 57.8871C26.4603 58.9266 26.0818 59.9258 25.4166 60.7253C24.7514 61.5248 23.8378 62.0788 22.8213 62.2989Z" fill="black"/>
<path d="M50.157 51.0045C48.6745 50.4708 47.0561 50.4484 45.5594 50.9409C44.0627 51.4333 42.7738 52.4124 41.898 53.7222C41.4898 54.4662 41.2455 55.2889 41.1816 56.1351C41.1176 56.9812 41.2356 57.8313 41.5274 58.6282C41.9909 59.9149 42.9152 60.9838 44.1216 61.6282C44.6543 62.0307 45.2508 62.3409 45.8863 62.5459C47.4624 63.0238 49.1613 62.8851 50.6389 62.1577C52.1166 61.4303 53.2627 60.1687 53.8453 58.6282C54.3176 57.1267 54.1989 55.5016 53.5134 54.0847C52.828 52.6678 51.6274 51.566 50.157 51.0045ZM47.3334 61.0812C46.4204 61.0604 45.5325 60.7787 44.7745 60.2694C44.6304 60.137 44.4948 59.9955 44.3686 59.8458C44.0563 59.4317 43.8066 58.9738 43.6274 58.487C43.185 57.5179 43.1036 56.4225 43.398 55.3987C43.8024 54.4091 44.536 53.5894 45.4749 53.0781C46.4138 52.5669 47.5004 52.3954 48.5511 52.5928C49.618 52.7751 50.5759 53.3557 51.2311 54.2173C51.8863 55.0789 52.1899 56.1571 52.0805 57.234C51.9305 58.3604 51.3551 59.3866 50.4723 60.102C49.5895 60.8174 48.4664 61.1678 47.3334 61.0812Z" fill="black"/>
<path d="M28.4512 109.612C27.8543 108.497 26.9864 107.55 25.9276 106.859C24.8856 106.059 23.5836 105.676 22.2745 105.782C22.1367 105.82 22.013 105.897 21.9188 106.004C21.8247 106.111 21.7644 106.244 21.7456 106.385C21.7267 106.527 21.7501 106.671 21.8128 106.799C21.8756 106.927 21.9748 107.034 22.0981 107.106C22.8569 107.53 23.7216 107.706 24.4805 108.147C25.173 108.555 25.7737 109.102 26.2452 109.753C26.7196 110.371 27.0053 111.113 27.0679 111.889C27.1305 112.666 26.9674 113.444 26.5982 114.13C26.2379 114.852 25.6763 115.455 24.9811 115.865C24.2859 116.275 23.4869 116.475 22.6804 116.441C21.8129 116.339 20.9817 116.033 20.2549 115.549C19.528 115.064 18.926 114.415 18.498 113.653C18.0383 112.938 17.7837 112.111 17.7619 111.262C17.7401 110.412 17.952 109.573 18.3745 108.835C18.6215 108.518 18.0921 108.147 17.8274 108.43C17.0829 109.057 16.5677 109.913 16.3627 110.865C16.2194 111.841 16.3288 112.837 16.6803 113.759C17.1001 114.834 17.7735 115.792 18.643 116.551C19.5125 117.31 20.5526 117.847 21.6745 118.118C22.8054 118.365 23.9831 118.285 25.0704 117.888C26.1577 117.492 27.1099 116.794 27.8158 115.877C28.5151 115.005 28.9472 113.95 29.0599 112.838C29.1727 111.727 28.9612 110.606 28.4512 109.612Z" fill="black"/>
<path d="M54.8509 110.935C54.713 109.431 54.0361 108.027 52.945 106.982C52.0672 106.236 51.0248 105.709 49.9035 105.445C48.7822 105.181 47.6142 105.187 46.4957 105.463C45.3772 105.738 44.3403 106.276 43.4703 107.031C42.6003 107.786 41.9222 108.737 41.4918 109.806C41.276 110.621 41.2273 111.47 41.3486 112.304C41.4699 113.139 41.7588 113.939 42.1977 114.659C42.6814 115.343 43.2782 115.94 43.9624 116.424L44.4036 116.706L44.5801 116.882C45.6126 117.616 46.8348 118.036 48.1001 118.092C49.3653 118.149 50.62 117.839 51.7135 117.2C52.8071 116.561 53.6931 115.62 54.2652 114.49C54.8373 113.36 55.0713 112.089 54.9391 110.829L54.8509 110.935ZM50.8096 115.594C50.1329 116.025 49.3611 116.284 48.5614 116.349C47.7618 116.413 46.9584 116.281 46.2213 115.965C45.4959 115.658 44.8589 115.174 44.3687 114.557C43.8786 113.941 43.5508 113.211 43.4154 112.435C43.3703 112.031 43.3703 111.622 43.4154 111.218C43.5254 110.171 44.002 109.196 44.7608 108.466C45.5197 107.737 46.512 107.298 47.5625 107.229C48.6134 107.029 49.7015 107.198 50.6412 107.71C51.5808 108.222 52.3139 109.044 52.7156 110.035C53.0556 111.042 53.053 112.133 52.7083 113.139C52.3636 114.144 51.696 115.008 50.8096 115.594Z" fill="black"/>
<path d="M26.6507 166.782V166.588C26.6025 166.355 26.5376 166.125 26.4566 165.9C26.4261 165.779 26.3848 165.661 26.3331 165.547V165.406C26.22 165.194 26.0963 164.988 25.9625 164.788L25.839 164.629C25.7523 164.552 25.6698 164.469 25.5919 164.382C25.5062 164.291 25.4116 164.208 25.3095 164.135L25.0625 164.029C24.8413 163.886 24.6115 163.756 24.3742 163.641H24.1978L23.8801 163.553H23.4919H23.2977C23.051 163.535 22.8033 163.535 22.5565 163.553H22.3801H21.9742C21.7342 163.607 21.4984 163.678 21.2683 163.765H21.1271L20.8271 163.924C20.6115 164.03 20.4049 164.154 20.2094 164.294L20.0859 164.4L19.8212 164.612C19.6534 164.774 19.4943 164.945 19.3447 165.124C19.2212 165.265 19.1329 165.406 18.9741 165.618C18.8153 165.829 18.6565 165.953 18.5153 166.147C18.4008 166.281 18.246 166.374 18.0741 166.412C18.0249 167.165 18.1599 167.918 18.4674 168.607C18.7749 169.295 19.2456 169.899 19.8388 170.365C20.6163 170.895 21.5319 171.186 22.4727 171.201C23.4136 171.217 24.3384 170.957 25.1331 170.453C25.8031 169.961 26.278 169.249 26.4743 168.441C26.6137 168.033 26.6619 167.599 26.6155 167.171C26.6684 167.029 26.6507 166.906 26.6507 166.782Z" fill="#16C995"/>
<path d="M50.4054 162.423C49.5052 161.895 48.4515 161.688 47.4184 161.839C46.3852 161.99 45.4344 162.489 44.7229 163.253C44.2545 163.81 43.9061 164.459 43.6997 165.157C43.4932 165.856 43.433 166.589 43.5229 167.312C43.6377 167.638 43.7855 167.951 43.9641 168.247C44.5928 169.322 45.5801 170.14 46.7524 170.559C47.8911 170.853 49.0972 170.734 50.1568 170.224C51.2164 169.714 52.061 168.844 52.5407 167.771C52.951 166.777 52.9574 165.662 52.5587 164.664C52.1599 163.665 51.3874 162.861 50.4054 162.423Z" fill="#16C995"/>
<path d="M144.713 144.406C121.183 143.629 97.6533 143.188 74.1234 143.082C62.4055 143.082 50.6876 143.082 38.9521 143.17C33.0696 143.17 27.1401 143.247 21.1635 143.4C15.6398 143.488 10.0985 143.629 4.59253 143.4C5.12195 155.824 5.81608 168.247 6.67493 180.671C6.92199 184.201 7.08082 187.995 8.81027 191.171C10.7515 194.701 14.4045 195.795 18.4105 196.077C28.7695 196.819 39.2168 197.066 49.6111 197.419C60.0055 197.772 70.3821 198.16 80.7941 198.389C85.506 198.495 90.2178 198.548 94.9121 198.636C99.6063 198.724 104.353 198.495 109.03 198.389C119.424 198.16 129.819 197.789 140.213 197.419C150.607 197.048 161.037 196.819 171.414 196.077C175.402 195.795 179.055 194.736 181.014 191.171C182.779 187.995 182.902 184.112 183.132 180.671C183.967 169.036 184.632 157.388 185.126 145.729C184.902 145.88 184.636 145.954 184.367 145.941C171.184 145.517 157.86 144.847 144.713 144.406ZM25.3636 172.642C24.064 173.227 22.6115 173.381 21.2179 173.083C19.8243 172.784 18.5625 172.049 17.6163 170.983C16.7889 169.951 16.3349 168.67 16.3281 167.347C16.3276 166.053 16.7909 164.801 17.634 163.818C18.0516 163.203 18.5851 162.676 19.2046 162.265C20.4512 161.427 21.9418 161.03 23.44 161.135C24.7829 161.244 26.052 161.795 27.0484 162.702C28.0447 163.609 28.7121 164.82 28.946 166.147C29.177 167.487 28.9377 168.865 28.2687 170.049C27.5998 171.233 26.5423 172.148 25.2753 172.642H25.3636ZM53.8112 169.73C53.1285 170.727 52.187 171.52 51.0876 172.023C49.9883 172.526 48.7728 172.719 47.5716 172.583C46.3705 172.447 45.2291 171.986 44.2701 171.251C43.3111 170.515 42.5708 169.531 42.1286 168.406C42.1286 168.406 42.1286 168.247 42.1286 168.159C41.6714 166.913 41.6289 165.553 42.0073 164.281C42.3857 163.009 43.1648 161.893 44.2286 161.1C45.4964 160.206 47.0235 159.754 48.5738 159.815C50.1241 159.875 51.6113 160.445 52.8053 161.435C53.4169 161.915 53.9266 162.512 54.3046 163.191C54.6826 163.87 54.9214 164.617 55.0068 165.39C55.0923 166.162 55.0228 166.944 54.8023 167.689C54.5819 168.434 54.2149 169.128 53.723 169.73H53.8112ZM168.131 173.983C167.097 174.424 165.967 174.594 164.849 174.477L161.796 174.565C159.749 174.565 157.719 174.671 155.672 174.706C151.525 174.706 147.36 174.706 143.213 174.706C139.066 174.706 134.901 174.583 130.736 174.442C128.707 174.442 126.66 174.283 124.63 174.177C122.574 174.239 120.523 173.928 118.577 173.259C117.977 172.977 118.224 172.2 118.754 172.006C120.819 171.535 122.949 171.416 125.054 171.653L131.178 171.759C135.254 171.759 139.348 171.865 143.425 171.865C147.501 171.865 151.596 171.865 155.672 171.759C157.79 171.759 159.908 171.759 162.008 171.6H165.078C166.106 171.438 167.159 171.548 168.131 171.918C168.306 172.032 168.449 172.189 168.544 172.374C168.64 172.56 168.685 172.767 168.676 172.976C168.668 173.184 168.604 173.387 168.493 173.563C168.382 173.74 168.227 173.884 168.043 173.983H168.131ZM169.261 162.265C169.027 162.579 168.696 162.807 168.319 162.912C167.942 163.018 167.541 162.995 167.178 162.847H166.649L164.972 163.041C163.984 163.165 162.996 163.253 162.008 163.324C160.031 163.483 158.055 163.571 156.06 163.588C151.949 163.588 147.819 163.588 143.707 163.324C139.595 163.059 135.448 162.883 131.354 162.759C127.26 162.635 123.095 162.865 119.001 162.653C117.977 162.653 117.66 161.1 118.736 160.888C123.06 160.274 127.435 160.091 131.795 160.341C136.066 160.341 140.354 160.571 144.625 160.694C148.896 160.818 153.149 160.853 157.419 160.694C159.537 160.624 161.655 160.483 163.772 160.271C164.902 160.147 166.031 159.918 167.161 159.847C167.578 159.763 168.012 159.811 168.401 159.985C168.79 160.159 169.116 160.45 169.331 160.818C169.459 161.046 169.512 161.307 169.484 161.567C169.455 161.826 169.346 162.07 169.172 162.265H169.261Z" fill="white"/>
<path d="M47.4583 106.781C46.4077 106.85 45.4154 107.288 44.6566 108.018C43.8977 108.748 43.4212 109.722 43.3111 110.769C43.2661 111.174 43.2661 111.582 43.3111 111.987C43.4465 112.763 43.7743 113.493 44.2645 114.109C44.7547 114.726 45.3916 115.21 46.117 115.517C46.8572 115.833 47.6633 115.965 48.4658 115.901C49.2683 115.836 50.043 115.577 50.723 115.146C51.5748 114.54 52.2071 113.674 52.5253 112.678C52.8434 111.682 52.8303 110.61 52.4878 109.622C52.0965 108.648 51.3854 107.836 50.4713 107.32C49.5572 106.803 48.4946 106.613 47.4583 106.781Z" fill="#16C995"/>
<path d="M39.4989 27.403C45.8166 27.2265 52.1344 27.0501 58.4522 26.9089C64.5053 26.7677 70.5407 26.6442 76.5938 26.9089C80.1233 26.9089 83.6527 26.7324 87.1822 26.6971C107.383 26.4853 127.583 26.7383 147.783 27.456C152.76 27.6207 157.737 27.8148 162.713 28.0383C167.672 28.2501 172.737 28.2677 177.678 28.8324C179.314 28.9939 180.903 29.4735 182.355 30.2442C180.35 27.6273 178.169 25.1508 175.825 22.8323C172.402 19.1617 168.99 15.4792 165.59 11.785C164.584 10.6733 163.631 9.52617 162.678 8.37909C161.722 7.54081 160.701 6.77959 159.625 6.10257C157.119 4.5936 154.299 3.6818 151.384 3.4378C148.189 3.08485 144.925 3.19074 141.713 3.15544C127.895 3.01426 114.095 2.69661 100.294 2.41425L94.8765 2.27307L89.4587 2.41425C75.6585 2.69661 61.8582 3.01426 48.0579 3.15544C44.8284 3.15544 41.5813 3.15544 38.3694 3.4378C35.4724 3.73492 32.6826 4.69503 30.2163 6.24374C29.1373 6.91665 28.1161 7.67811 27.1633 8.52026C26.2104 9.66734 25.2574 10.8144 24.2515 11.9262C20.8397 15.6204 17.4219 19.3028 13.9983 22.9735C11.6177 25.3212 9.41175 27.8397 7.39819 30.5089C11.1924 28.1442 15.9748 28.1442 20.3338 27.9324L39.4989 27.403Z" fill="white"/>
<path d="M183.978 85.7983C181.808 85.7983 179.637 85.7983 177.502 85.7983H146.848C122.753 85.7983 98.6352 85.6983 74.4935 85.4983C62.3756 85.4042 50.2519 85.2983 38.1222 85.1806L20.0512 84.9865C14.4393 84.9865 8.80981 84.9865 3.21558 84.5983C3.21558 96.8573 3.36852 109.116 3.67441 121.376C3.86265 128.082 4.10383 134.782 4.39796 141.476C10.6628 140.947 16.9629 140.894 23.2454 140.77C29.8455 140.647 36.428 140.541 43.0282 140.47C66.5522 140.223 90.0762 140.47 113.618 140.911C125.383 141.135 137.101 141.47 148.772 141.917C160.631 142.358 172.507 142.764 184.349 143.541C184.669 143.548 184.973 143.681 185.196 143.911C185.525 136.393 185.796 128.882 186.008 121.376C186.325 109.681 186.484 97.975 186.484 86.2571L185.09 86.5748C184.841 86.6073 184.589 86.5457 184.384 86.4021C184.178 86.2584 184.033 86.0431 183.978 85.7983ZM27.8514 115.375C27.1504 116.299 26.1995 117.003 25.1111 117.403C24.0228 117.803 22.8426 117.884 21.7101 117.634C20.5881 117.364 19.5481 116.826 18.6786 116.067C17.809 115.308 17.1357 114.35 16.7159 113.275C16.3643 112.354 16.255 111.357 16.3982 110.381C16.6032 109.43 17.1184 108.573 17.8629 107.946C18.1277 107.663 18.6571 107.946 18.41 108.352C17.9876 109.089 17.7757 109.928 17.7975 110.778C17.8192 111.627 18.0739 112.455 18.5335 113.169C18.9616 113.931 19.5635 114.581 20.2904 115.065C21.0173 115.55 21.8484 115.856 22.716 115.958C23.5224 115.992 24.3215 115.791 25.0166 115.381C25.7118 114.971 26.2734 114.368 26.6337 113.646C27.003 112.96 27.1661 112.182 27.1035 111.406C27.0408 110.629 26.7551 109.887 26.2808 109.269C25.8093 108.618 25.2085 108.072 24.516 107.663C23.7572 107.222 22.8925 107.046 22.1336 106.622C22.0103 106.55 21.9111 106.444 21.8484 106.315C21.7856 106.187 21.7622 106.043 21.7811 105.902C21.8 105.76 21.8603 105.627 21.9544 105.52C22.0485 105.413 22.1723 105.336 22.3101 105.299C23.6191 105.192 24.9211 105.576 25.9631 106.375C27.022 107.067 27.8898 108.013 28.4867 109.128C28.9975 110.119 29.2093 111.237 29.0965 112.346C28.9837 113.455 28.5512 114.508 27.8514 115.375ZM49.9636 117.511C49.0339 117.756 48.0615 117.793 47.1158 117.619C46.1701 117.446 45.2745 117.065 44.4929 116.505L44.3164 116.328L43.8753 116.046C43.191 115.562 42.5943 114.965 42.1105 114.281C41.6716 113.562 41.3828 112.761 41.2614 111.927C41.1401 111.093 41.1888 110.243 41.4046 109.428C41.8192 108.336 42.4909 107.36 43.3627 106.582C44.2346 105.805 45.281 105.249 46.4133 104.961C47.5456 104.674 48.7305 104.664 49.8677 104.931C51.0048 105.199 52.0607 105.736 52.946 106.499C54.0502 107.538 54.7399 108.943 54.8872 110.452C55.0696 112.027 54.6696 113.614 53.7626 114.914C52.8557 116.214 51.5045 117.138 49.9636 117.511ZM119.547 104.381C123.423 103.99 127.318 103.819 131.212 103.869C135.165 103.869 139.101 103.869 143.054 103.869C147.007 103.869 150.942 103.869 154.895 103.869C158.848 103.869 162.819 103.763 166.719 104.046C166.904 104.024 167.092 104.042 167.27 104.098C167.448 104.155 167.612 104.248 167.752 104.372C167.891 104.496 168.003 104.649 168.079 104.819C168.156 104.989 168.195 105.174 168.195 105.36C168.195 105.547 168.156 105.732 168.079 105.902C168.003 106.072 167.891 106.225 167.752 106.349C167.612 106.473 167.448 106.566 167.27 106.623C167.092 106.679 166.904 106.697 166.719 106.675C162.801 106.852 158.813 106.675 154.895 106.569L143.266 106.428C139.401 106.428 135.518 106.428 131.654 106.428C127.789 106.428 123.73 106.64 119.812 106.305C118.789 106.128 118.383 104.54 119.547 104.381ZM167.195 117.793C166.222 118.044 165.217 118.145 164.213 118.093L161.16 118.199C159.131 118.199 157.101 118.305 155.072 118.34C151.066 118.34 147.077 118.34 143.071 118.34C139.065 118.34 135.077 118.181 131.089 118.005C127.079 118.039 123.077 117.625 119.159 116.77C118.577 116.611 118.489 115.675 119.159 115.587C123.122 115.163 127.114 115.092 131.089 115.375C135.077 115.375 139.083 115.517 143.071 115.534C147.06 115.552 151.066 115.534 155.072 115.446L161.16 115.322L164.213 115.217C165.207 115.101 166.212 115.137 167.195 115.322C167.488 115.368 167.755 115.515 167.95 115.738C168.144 115.962 168.253 116.247 168.257 116.543C168.261 116.839 168.161 117.127 167.973 117.356C167.785 117.585 167.522 117.74 167.231 117.793H167.195Z" fill="white"/>
<path d="M4.23966 38.3091C3.91718 41.1504 3.76984 44.0088 3.79847 46.8681C3.63964 51.8447 3.53376 56.8389 3.44552 61.8331C3.32199 68.7509 3.26904 75.6864 3.26904 82.6042C9.60447 82.3747 15.9575 82.6042 22.3106 82.6042L42.7993 82.7277C66.9057 82.8453 91.0238 82.9336 115.154 82.9924C127.283 82.9924 139.413 82.9924 151.543 82.9924H178.596C181.208 82.9924 183.89 82.8689 186.502 82.9924C186.502 75.9334 186.502 68.8745 186.326 61.8155C186.232 56.8154 186.114 51.827 185.973 46.8505C186.095 43.0804 185.745 39.31 184.932 35.6267C184.519 35.0268 184.04 34.4762 183.502 33.9855C182.031 32.6344 180.185 31.7607 178.208 31.4796C175.59 31.1562 172.957 30.9736 170.32 30.9325C150.802 29.9207 131.266 29.3325 111.712 29.1677C96.0945 28.9913 80.4942 29.1677 64.8762 29.0089C62.3703 29.1324 59.8643 29.2207 57.3584 29.2913C45.3052 29.6972 33.252 30.0148 21.2165 30.3501C16.787 30.4737 11.5457 30.3501 7.82208 32.9972C6.06519 34.3152 4.80325 36.1864 4.23966 38.3091ZM167.178 62.9273C166.402 63.7214 165.29 63.5979 164.214 63.6332L161.161 63.7567C159.131 63.7567 157.102 63.8802 155.055 63.9155C150.996 64.0096 146.925 64.0449 142.843 64.0214C138.784 64.0214 134.707 64.0214 130.631 63.792L124.313 63.439C122.349 63.4491 120.396 63.1514 118.524 62.5567C117.924 62.3096 118.171 61.4978 118.683 61.3567C120.68 60.9508 122.726 60.8437 124.754 61.039L130.86 61.1625C134.919 61.2331 138.99 61.2743 143.072 61.2861C147.219 61.2861 151.349 61.2861 155.425 61.1449L161.531 60.9684L164.584 60.8449C165.019 60.7485 165.47 60.7476 165.906 60.842C166.342 60.9364 166.752 61.124 167.108 61.3919C167.221 61.4829 167.314 61.597 167.38 61.7266C167.446 61.8562 167.483 61.9984 167.49 62.1437C167.497 62.2889 167.472 62.4339 167.419 62.5691C167.365 62.7042 167.283 62.8263 167.178 62.9273ZM118.666 51.0858C122.681 50.5742 126.724 50.309 130.772 50.2917C134.725 50.1858 138.695 50.0799 142.666 50.0094C150.725 49.9035 158.802 49.8623 166.896 49.8858C167.086 49.864 167.279 49.8827 167.461 49.9406C167.644 49.9985 167.812 50.0943 167.955 50.2218C168.098 50.3493 168.212 50.5055 168.291 50.6803C168.369 50.855 168.409 51.0444 168.409 51.2358C168.409 51.4273 168.369 51.6167 168.291 51.7914C168.212 51.9662 168.098 52.1224 167.955 52.2499C167.812 52.3774 167.644 52.4732 167.461 52.5311C167.279 52.589 167.086 52.6077 166.896 52.5859C158.884 52.5859 150.878 52.5859 142.878 52.5859H130.772C126.805 52.7244 122.834 52.642 118.877 52.3388C118.101 52.4447 117.783 51.28 118.666 51.0858ZM41.8993 53.1859C42.7751 51.8761 44.064 50.8971 45.5607 50.4046C47.0574 49.9121 48.6758 49.9345 50.1583 50.4682C51.6408 51.0299 52.8505 52.1402 53.5371 53.5692C54.2236 54.9981 54.3344 56.6364 53.8466 58.1448C53.264 59.6853 52.1179 60.947 50.6402 61.6744C49.1625 62.4017 47.4637 62.5405 45.8876 62.0625C45.2521 61.8576 44.6556 61.5474 44.1228 61.1449C42.9165 60.5005 41.9922 59.4315 41.5287 58.1448C41.2368 57.348 41.1189 56.4979 41.1829 55.6517C41.2468 54.8055 41.491 53.9828 41.8993 53.2388V53.1859ZM14.7752 55.6742C14.8567 55.3971 14.9569 55.1259 15.0752 54.8624C15.2307 54.1806 15.5197 53.5364 15.9256 52.967C16.3315 52.3975 16.8462 51.9141 17.4399 51.5447C18.5674 50.8095 19.8764 50.4009 21.2218 50.3641C22.5673 50.3273 23.8967 50.6638 25.0626 51.3363C26.2285 52.0088 27.1854 52.991 27.8273 54.1741C28.4692 55.3572 28.7709 56.6949 28.699 58.0389C28.4413 59.5456 27.7016 60.9279 26.5909 61.9781C25.4803 63.0283 24.0587 63.6896 22.54 63.8626C21.0316 64.1528 19.4692 63.9191 18.1117 63.2002C16.7542 62.4813 15.6829 61.3204 15.0752 59.9096C14.5277 58.5655 14.4226 57.082 14.7752 55.6742Z" fill="white"/>
<path d="M44.3688 59.3625C44.495 59.5122 44.6306 59.6536 44.7747 59.786C45.5327 60.2954 46.4206 60.5771 47.3336 60.5978C48.4636 60.6797 49.5824 60.3272 50.4613 59.6122C51.3403 58.8972 51.9132 57.8737 52.0631 56.7507C52.1725 55.6738 51.8689 54.5956 51.2137 53.734C50.5585 52.8724 49.6006 52.2917 48.5336 52.1094C47.4829 51.9121 46.3963 52.0836 45.4574 52.5948C44.5186 53.106 43.7849 53.9257 43.3806 54.9153C43.0861 55.9392 43.1675 57.0345 43.61 58.0036C43.7946 58.4915 44.0503 58.9494 44.3688 59.3625Z" fill="white"/>
<path d="M22.8224 61.8155C23.8605 61.6072 24.7968 61.0515 25.4768 60.2399C26.1569 59.4284 26.5402 58.4093 26.5636 57.3507C26.4789 56.2337 26.042 55.1723 25.3158 54.3192C24.5897 53.4662 23.6116 52.8655 22.5224 52.6036C21.1209 52.335 19.6701 52.6265 18.4811 53.4154C17.9629 53.7757 17.5245 54.2391 17.1936 54.7766C16.8626 55.314 16.6461 55.914 16.5575 56.539C16.5575 56.539 16.5575 56.539 16.5575 56.6448C16.4152 57.771 16.6313 58.9133 17.1752 59.9096C17.7746 60.8055 18.6534 61.4781 19.6747 61.8228C20.696 62.1675 21.8026 62.1649 22.8224 61.8155Z" fill="#16C995"/>
<path d="M25.187 53.08C24.2295 52.3365 23.0848 51.8726 21.8798 51.7398C20.6747 51.607 19.4565 51.8105 18.36 52.3276C17.2636 52.8448 16.3317 53.6555 15.6678 54.6698C15.0039 55.6841 14.6338 56.8625 14.5985 58.0743C14.5985 58.8331 15.8338 59.0449 15.9574 58.2507C16.1342 57.0411 16.6999 55.9219 17.5691 55.0623C18.4382 54.2027 19.5636 53.6494 20.7751 53.4859C22.0383 53.3998 23.2904 53.7692 24.3046 54.5271C24.8105 54.8834 25.2674 55.3047 25.6634 55.7801C26.0517 56.2742 26.3517 56.8213 26.7576 57.3154C26.8062 57.3601 26.8653 57.3916 26.9295 57.4071C26.9936 57.4225 27.0607 57.4214 27.1243 57.4037C27.1879 57.386 27.2459 57.3525 27.2929 57.3061C27.3399 57.2598 27.3743 57.2023 27.3929 57.139C27.4081 56.3293 27.2128 55.5296 26.8261 54.8181C26.4394 54.1066 25.8746 53.5077 25.187 53.08Z" fill="white"/>
<path d="M52.7159 163.606C51.9716 162.454 50.8479 161.599 49.5394 161.188C48.5859 160.911 47.5739 160.908 46.6188 161.179C45.6637 161.45 44.8039 161.984 44.1378 162.72C43.4716 163.456 43.0258 164.365 42.8513 165.342C42.6768 166.319 42.7807 167.326 43.151 168.247C43.2041 168.361 43.2959 168.452 43.4099 168.504C43.524 168.557 43.653 168.567 43.7738 168.533C43.8946 168.499 43.9995 168.423 44.0696 168.319C44.1398 168.215 44.1707 168.09 44.1569 167.965C43.9186 166.817 44.1375 165.622 44.767 164.633C45.3965 163.644 46.3869 162.94 47.5276 162.671C48.1273 162.607 48.7336 162.682 49.2997 162.89C49.8658 163.098 50.3765 163.434 50.7923 163.871C51.2452 164.296 51.6108 164.805 51.8688 165.371C52.1034 165.974 52.2692 166.601 52.3629 167.241C52.3876 167.331 52.4378 167.411 52.5075 167.472C52.5771 167.533 52.6631 167.573 52.7549 167.586C52.8467 167.599 52.9403 167.585 53.0243 167.546C53.1083 167.507 53.179 167.444 53.2277 167.365C53.4519 166.743 53.5225 166.077 53.4334 165.423C53.3443 164.768 53.0981 164.145 52.7159 163.606Z" fill="white"/>
</svg>
