<svg width="239" height="247" viewBox="0 0 239 247" fill="none" xmlns="http://www.w3.org/2000/svg">
<path d="M164.027 212.706C153.691 215.09 143.534 218.084 133.432 220.823C123.329 223.562 113.384 226.089 103.284 228.772C93.1828 231.456 83.1228 234.09 72.9769 236.308C69.0546 237.17 65.2513 237.187 62.3813 234.317C59.7904 231.769 58.5741 228.08 57.3641 224.849C50.4483 206.257 43.9225 187.532 37.7867 168.673C31.6509 149.815 25.975 130.79 20.7592 111.599C19.3471 106.808 18.1211 101.963 16.8663 97.1446C15.7173 92.8102 14.125 88.22 14.8551 83.6444C15.5853 79.0688 17.8974 75.2411 19.8788 71.2901C22.1248 66.8012 24.3617 62.3027 26.5898 57.7945C27.7486 55.4843 28.5966 53.1185 29.6777 50.7944C29.7554 50.5836 29.7532 50.3516 29.6713 50.1424C29.5894 49.9332 29.4336 49.7613 29.2334 49.6593C29.0333 49.5572 28.8026 49.5322 28.5852 49.5889C28.3678 49.6456 28.1788 49.78 28.0539 49.9668C26.8602 52.1585 25.3448 54.445 24.1402 56.7872C22.9356 59.1293 21.6295 61.5013 20.4019 63.703C18.116 68.0565 15.627 72.4699 13.6738 76.8909C12.6999 78.9201 12.0099 81.0736 11.6232 83.2909C11.3118 85.5386 11.3636 87.8217 11.7768 90.053C12.5835 94.9115 14.1072 99.7058 15.3979 104.458C20.6311 124 26.3208 143.426 32.4669 162.735C38.6129 182.044 45.2177 201.329 52.2813 220.589C53.5902 224.72 55.2189 228.742 57.1528 232.62C57.9781 234.308 59.152 235.802 60.5969 237.003C62.0419 238.204 63.7252 239.085 65.5356 239.587C70.0726 240.623 74.9963 238.914 79.4014 237.818L94.951 233.896C115.737 228.578 136.394 222.82 156.955 216.74C159.494 215.992 162.003 215.142 164.486 214.263C164.618 214.263 164.748 214.233 164.866 214.174C164.984 214.115 165.087 214.03 165.166 213.924C165.245 213.819 165.298 213.696 165.322 213.566C165.345 213.436 165.338 213.303 165.301 213.176C165.263 213.05 165.197 212.934 165.107 212.837C165.017 212.741 164.906 212.667 164.782 212.621C164.658 212.576 164.525 212.559 164.394 212.574C164.263 212.589 164.137 212.634 164.027 212.706Z" fill="black"/>
<path d="M107.897 22.235C104.363 22.9459 100.874 23.8639 97.4473 24.9842C94.0619 25.9822 90.6764 26.9802 87.291 27.9782C80.5201 29.9742 73.6307 32.0052 66.7921 34.0211C59.9535 36.0371 53.2752 38.0978 46.5243 40.1615C40.4813 41.9429 34.1145 43.5622 29.6736 48.2198C27.6453 50.4083 25.9847 52.9109 24.7565 55.6303C24.1299 56.9374 23.5809 58.2583 23.0928 59.5981C22.6238 61.0728 22.2302 62.5705 21.9134 64.0853C21.7943 64.6172 22.6141 64.9643 22.8787 64.4263C23.4625 63.2239 24.0375 62.1161 24.706 60.8887C25.3744 59.6614 25.8248 58.4431 26.4256 57.2357C27.538 54.9297 28.9443 52.7774 30.6094 50.8324C32.5337 48.6102 34.9482 46.8655 37.6622 45.736C40.6432 44.4893 43.7877 43.6727 46.8754 42.7257C60.0726 38.6881 73.2199 34.4812 86.3772 30.3082C90.0504 29.2254 93.6518 27.9613 97.2831 26.7989C101.001 25.7375 104.655 24.4637 108.228 22.9838C108.633 22.7355 108.296 22.1541 107.897 22.235Z" fill="black"/>
<path d="M130.494 222.591C140.471 218.987 150.627 215.993 160.583 212.819C170.539 209.645 180.354 206.365 190.219 203.071C200.085 199.776 210.024 196.607 219.768 192.962C223.513 191.563 226.718 189.515 227.589 185.542C228.383 181.996 227.404 178.237 226.651 174.871C222.387 155.498 217.712 136.227 212.626 117.059C207.539 97.8908 202.03 78.8476 196.097 59.9291C194.593 55.1597 193.07 50.4082 191.527 45.6746C190.124 41.415 188.972 36.6951 185.894 33.2423C182.815 29.7894 178.78 27.833 174.955 25.5936C170.633 23.0407 166.319 20.4733 162.013 17.8913C159.787 16.5791 157.774 15.0566 155.605 13.6906C155.425 13.5556 155.302 13.3595 155.257 13.1393C155.212 12.9192 155.25 12.6902 155.363 12.4959C155.475 12.3017 155.656 12.1555 155.869 12.0852C156.082 12.0149 156.314 12.0253 156.52 12.1145C158.814 13.2783 161.225 14.4071 163.525 15.7163L170.327 19.5065C174.592 21.9289 179.094 24.2814 183.116 26.9409C185.07 28.1196 186.852 29.5633 188.41 31.231C189.885 32.9546 191.079 34.8998 191.949 36.9951C193.907 41.5143 195.21 46.3734 196.721 51.0612C202.914 70.3201 208.637 89.7357 213.892 109.308C219.146 128.88 224.058 148.664 228.628 168.659C229.778 172.837 230.592 177.1 231.062 181.409C231.291 183.272 231.121 185.164 230.561 186.957C230.001 188.749 229.065 190.402 227.816 191.804C224.566 195.135 219.503 196.37 215.19 197.844C210.142 199.565 205.078 201.279 200 202.984C179.67 209.787 159.193 216.154 138.605 222.205C136.083 222.949 133.497 223.601 130.951 224.204C130.84 224.253 130.72 224.278 130.599 224.277C130.477 224.276 130.357 224.249 130.247 224.198C130.137 224.146 130.039 224.072 129.961 223.979C129.882 223.887 129.824 223.778 129.791 223.661C129.758 223.544 129.75 223.422 129.769 223.302C129.787 223.181 129.831 223.067 129.898 222.965C129.965 222.864 130.052 222.778 130.155 222.713C130.258 222.648 130.374 222.607 130.494 222.591Z" fill="black"/>
<path d="M74.3306 32.13C77.7011 30.8027 81.1473 29.6763 84.651 28.7564C88.0365 27.7584 91.4219 26.7604 94.8074 25.7624C101.578 23.7664 108.468 21.7355 115.306 19.7195C122.145 17.7036 128.873 15.8122 135.664 13.8839C141.69 12.1074 147.934 10.0092 154.191 11.5131C157.082 12.2514 159.835 13.4531 162.342 15.0714C163.56 15.8345 164.755 16.6414 165.875 17.5072C167.074 18.4861 168.217 19.531 169.3 20.6372C169.383 20.7252 169.432 20.8398 169.439 20.9607C169.445 21.0816 169.409 21.2009 169.336 21.2974C169.263 21.394 169.158 21.4615 169.04 21.488C168.922 21.5145 168.798 21.4983 168.691 21.4422C167.531 20.7538 166.362 20.16 165.237 19.4616C164.111 18.7631 162.97 18.0139 161.81 17.3255C159.622 15.9966 157.274 14.9516 154.822 14.2156C151.977 13.3917 148.978 13.2426 146.065 13.7798C142.901 14.3445 139.8 15.3692 136.709 16.2435C123.415 20.0153 110.088 23.6128 96.7712 27.2441C93.1149 28.3219 89.3868 29.2186 85.7056 30.2118C82.0118 31.3349 78.2566 32.2453 74.4586 32.9386C73.9327 32.9648 73.9343 32.2836 74.3306 32.13Z" fill="black"/>
<path d="M82.2045 57.2223C75.8844 58.6254 69.7289 60.5872 63.5446 62.5758C57.3603 64.5645 51.5145 66.4534 45.5045 68.4091L27.2712 74.336C22.8423 75.7888 17.9006 77.3743 14.9332 81.1009C11.3129 85.6086 12.35 91.0615 14.2194 96.0299C14.2901 96.1773 14.4109 96.2948 14.5603 96.3612C14.7097 96.4277 14.8778 96.4388 15.0346 96.3925C15.1915 96.3463 15.3267 96.2458 15.4161 96.1089C15.5056 95.9721 15.5434 95.8078 15.5228 95.6456C14.8918 91.5081 13.8021 86.4386 16.7069 82.749C19.6116 79.0593 24.5924 77.7935 28.8062 76.4225C40.2557 72.6977 51.7272 68.9848 63.1738 65.1873C69.6767 63.0312 76.1896 60.9088 82.462 58.1583C82.5235 58.1413 82.581 58.1125 82.6313 58.0734C82.6816 58.0342 82.7238 57.9855 82.7553 57.9301C82.7868 57.8747 82.807 57.8136 82.8149 57.7504C82.8228 57.6871 82.8182 57.623 82.8013 57.5615C82.7844 57.5 82.7555 57.4425 82.7164 57.3922C82.6772 57.3419 82.6286 57.2998 82.5731 57.2683C82.5177 57.2368 82.4567 57.2165 82.3934 57.2086C82.3302 57.2007 82.266 57.2054 82.2045 57.2223Z" fill="black"/>
<path d="M188.374 33.5414C187.062 32.2957 185.462 31.3952 183.717 30.9206C181.971 30.4461 180.135 30.4125 178.373 30.8228C173.474 31.6783 168.611 33.0935 163.795 34.2926C158.978 35.4916 154.128 36.7007 149.309 37.9555C129.745 42.987 110.298 48.4562 90.9668 54.3633C80.0328 57.7153 69.1011 61.3242 58.5082 65.4588C58.4409 65.4787 58.3842 65.5245 58.3506 65.5861C58.317 65.6478 58.3093 65.7202 58.3292 65.7876C58.349 65.8549 58.3948 65.9116 58.4564 65.9452C58.5181 65.9788 58.5906 65.9865 58.6579 65.9666C77.6157 60.8748 96.339 54.9874 115.222 49.6416C134.105 44.2959 152.95 39.3844 171.936 34.7626C174.478 34.0563 177.055 33.4869 179.658 33.0568C181.634 32.7673 183.651 33.0834 185.444 33.9635C189.054 35.6592 190.716 39.364 192.982 42.2467C193.223 42.5622 193.827 42.3657 193.697 41.9256C192.654 38.7286 190.824 35.8454 188.374 33.5414Z" fill="black"/>
<path d="M203.548 79.7739C200.542 80.4391 197.606 81.5254 194.661 82.3937L168.661 90.0583C157.026 93.4881 145.391 96.9179 133.757 100.348C110.645 107.161 87.4864 113.896 64.28 120.553L44.5926 126.228C38.0417 128.159 31.3922 129.88 24.953 132.128C24.8203 132.139 24.6919 132.18 24.577 132.248C24.4621 132.315 24.3635 132.407 24.2885 132.517C24.2136 132.628 24.1639 132.753 24.1433 132.885C24.1226 133.016 24.1315 133.151 24.1691 133.279C24.2068 133.406 24.2724 133.524 24.3611 133.624C24.4499 133.723 24.5596 133.801 24.6823 133.853C24.8051 133.905 24.9378 133.929 25.0709 133.923C25.204 133.918 25.3342 133.882 25.452 133.82C31.4117 132.505 37.2635 130.762 43.1353 129.086L60.5237 124.162C72.1917 120.845 83.8506 117.519 95.5006 114.183C118.673 107.535 141.835 100.812 164.987 94.0113L194.39 85.3437C196.438 84.7399 198.52 84.1261 200.602 83.5124C200.736 83.7182 200.94 83.8681 201.176 83.934C201.412 83.9999 201.664 83.9772 201.885 83.8701C202.842 83.3695 203.763 82.8028 204.642 82.1744C204.879 81.9858 205.047 81.723 205.118 81.4278C205.189 81.1327 205.16 80.8223 205.034 80.5461C204.908 80.2699 204.693 80.0438 204.424 79.9038C204.154 79.7639 203.846 79.7182 203.548 79.7739Z" fill="black"/>
<path d="M217.297 138.772C205.719 141.375 194.213 144.344 182.713 147.274C171.213 150.204 160.014 153.156 148.709 156.249C126.022 162.422 103.403 168.887 80.8754 175.786C74.5446 177.652 68.2807 179.683 61.9848 181.668C55.689 183.652 49.2208 185.614 43.0308 188.083C42.8939 188.104 42.7631 188.154 42.6471 188.23C42.5311 188.305 42.4327 188.405 42.3584 188.522C42.2841 188.639 42.2357 188.77 42.2164 188.907C42.1971 189.044 42.2073 189.184 42.2465 189.317C42.2857 189.45 42.3528 189.573 42.4434 189.677C42.534 189.782 42.646 189.866 42.7718 189.924C42.8976 189.982 43.0343 190.012 43.1728 190.013C43.3113 190.014 43.4483 189.985 43.5747 189.928C49.3321 188.488 54.9498 186.575 60.6543 184.893C66.3588 183.212 71.9795 181.371 77.6521 179.643C88.8838 176.24 100.108 172.876 111.363 169.614C133.963 163.062 156.657 156.832 179.446 150.923C192.267 147.604 205.152 144.504 218.016 141.209C218.339 141.114 218.611 140.894 218.772 140.598C218.933 140.302 218.97 139.954 218.875 139.631C218.78 139.308 218.56 139.036 218.264 138.874C217.968 138.713 217.62 138.676 217.297 138.772Z" fill="black"/>
<path d="M207.652 159.792C207.341 159.501 206.947 159.313 206.525 159.256C206.102 159.199 205.673 159.276 205.296 159.475C204.212 159.794 203.214 160.401 202.166 160.839C200.194 161.641 198.203 162.375 196.191 163.042C192.14 164.402 188.034 165.576 183.919 166.66C179.805 167.744 175.625 168.792 171.513 169.949C167.26 170.941 163.116 172.354 159.142 174.166C158.164 174.657 158.913 176.073 159.895 175.784C163.899 174.825 167.8 173.454 171.774 172.393C175.748 171.332 179.8 170.413 183.782 169.441C187.765 168.47 191.799 167.428 195.706 166.202C197.619 165.638 199.485 164.978 201.336 164.267C202.284 163.987 203.187 163.555 204.1 163.158L205.653 162.497L206.161 162.348C206.55 162.387 206.942 162.295 207.274 162.087C207.605 161.88 207.859 161.568 207.994 161.2C208.082 160.958 208.097 160.695 208.036 160.444C207.975 160.194 207.842 159.967 207.652 159.792Z" fill="black"/>
<path d="M209.673 170.64C208.636 170.56 207.595 170.752 206.655 171.199L203.71 172.067C201.695 172.661 199.699 173.378 197.678 174.011C193.768 175.163 189.87 176.423 185.96 177.575C182.05 178.728 178.123 179.886 174.183 180.937L168.279 182.567C166.193 182.934 164.184 183.651 162.336 184.687C161.883 185.023 161.865 185.837 162.521 185.938C164.576 186.03 166.631 185.748 168.586 185.107C170.563 184.635 172.551 184.141 174.518 183.634C178.553 182.592 182.556 181.504 186.56 180.36C190.565 179.217 194.533 178.01 198.511 176.838C200.475 176.259 202.421 175.685 204.345 174.971L207.248 174.023C208.354 173.818 209.39 173.336 210.257 172.621C210.399 172.468 210.499 172.281 210.547 172.078C210.594 171.876 210.588 171.664 210.529 171.464C210.471 171.264 210.361 171.083 210.211 170.939C210.06 170.794 209.875 170.691 209.673 170.64Z" fill="black"/>
<path d="M74.5539 204.456C73.9544 203.249 72.9716 202.275 71.7595 201.687C70.5473 201.099 69.1743 200.93 67.8555 201.205C66.3885 201.527 65.0711 202.33 64.1123 203.486C63.6342 204.055 63.2716 204.712 63.0449 205.42C62.5141 206.601 62.4238 207.933 62.7903 209.175C63.1708 210.441 63.9686 211.542 65.0539 212.297C66.2628 213.052 67.6812 213.401 69.1023 213.293C70.5234 213.186 71.8729 212.627 72.954 211.698C74.0097 210.857 74.7446 209.678 75.0359 208.36C75.3271 207.042 75.1569 205.664 74.5539 204.456ZM72.9105 207.369C72.9174 208.247 72.5969 209.095 72.0117 209.75C71.3919 210.458 70.5784 210.969 69.6716 211.22C68.7647 211.471 67.8042 211.451 66.9086 211.162C66.2078 210.883 65.5856 210.437 65.0959 209.863C64.6062 209.29 64.2637 208.605 64.0981 207.869C64.2522 207.784 64.3744 207.651 64.4464 207.491C64.5269 207.264 64.6513 207.062 64.7368 206.853C64.7953 206.655 64.8674 206.462 64.9526 206.274C65.0455 206.06 65.1497 205.851 65.2649 205.649L65.4589 205.371L65.5475 205.234C65.6953 205.044 65.8584 204.867 66.0351 204.704L66.278 204.467L66.4134 204.427C66.6095 204.279 66.8158 204.144 67.0306 204.024L67.42 203.909L67.5892 203.86C67.8209 203.773 68.0585 203.703 68.3002 203.65L68.4864 203.595L68.8588 203.485L69.1884 203.48L69.3577 203.43C69.6178 203.473 69.8749 203.533 70.1276 203.608L70.2541 203.663C70.3726 203.704 70.4868 203.756 70.5948 203.82L70.8847 203.992L71.0481 204.109C71.2329 204.263 71.4099 204.426 71.5783 204.597L71.6182 204.732C71.6999 204.827 71.773 204.929 71.8365 205.036C71.9776 205.229 72.1049 205.431 72.2173 205.641L72.2722 205.828C72.3071 205.946 72.342 206.065 72.382 206.2C72.6418 206.546 72.8223 206.945 72.9105 207.369Z" fill="black"/>
<path d="M96.0295 193.305C94.6041 192.692 93.0165 192.566 91.5123 192.946C90.0082 193.327 88.6711 194.192 87.708 195.408C86.912 196.47 86.4801 197.76 86.4768 199.087C86.4735 200.415 86.8989 201.707 87.6897 202.773C87.6897 202.773 87.7396 202.942 87.7596 203.01C88.5018 203.964 89.49 204.698 90.618 205.133C91.7459 205.567 92.971 205.687 94.1616 205.477C95.3522 205.268 96.4633 204.739 97.3756 203.946C98.2879 203.153 98.9669 202.126 99.3397 200.976C99.6352 200.256 99.7839 199.484 99.777 198.706C99.77 197.927 99.6076 197.158 99.2992 196.444C98.9908 195.729 98.5427 195.083 97.9812 194.544C97.4197 194.005 96.7562 193.584 96.0295 193.305ZM97.8059 199.331C97.6494 200.496 97.085 201.569 96.213 202.358C95.341 203.147 94.2177 203.602 93.0422 203.642C91.7993 203.572 90.6209 203.066 89.714 202.213C89.4591 201.98 89.2286 201.721 89.0264 201.441C88.7358 200.773 88.5861 200.052 88.5867 199.324C88.5872 198.596 88.7381 197.875 89.0297 197.208C89.4961 196.274 90.2671 195.527 91.2155 195.09C92.1638 194.653 93.2327 194.553 94.2458 194.806C95.3009 194.968 96.2522 195.532 96.9002 196.38C97.5481 197.229 97.8424 198.295 97.7213 199.356L97.8059 199.331Z" fill="black"/>
<path d="M189.217 105.929C185.379 106.766 181.599 108.046 177.826 109.103C174.053 110.16 170.243 111.339 166.468 112.451C162.693 113.564 158.901 114.682 155.11 115.8C151.359 116.853 147.672 118.118 144.065 119.589C142.993 120.071 143.837 121.496 144.818 121.207C148.671 120.421 152.437 119.09 156.211 117.977C159.986 116.864 163.643 115.787 167.35 114.694L178.545 111.541C182.302 110.433 186.208 109.576 189.916 108.299C190.13 108.316 190.345 108.281 190.542 108.197C190.74 108.112 190.914 107.981 191.049 107.814C191.185 107.648 191.278 107.45 191.32 107.24C191.362 107.029 191.353 106.811 191.292 106.605C191.231 106.399 191.121 106.211 190.971 106.057C190.822 105.903 190.637 105.788 190.432 105.721C190.228 105.655 190.011 105.639 189.799 105.675C189.587 105.711 189.388 105.798 189.217 105.929Z" fill="black"/>
<path d="M192.895 116.656C191.906 116.754 190.937 117.003 190.022 117.393L187.123 118.358L181.318 120.198C177.476 121.331 173.68 122.56 169.833 123.676C165.985 124.792 162.165 125.936 158.294 126.912C154.401 127.764 150.592 128.961 146.911 130.488C146.293 130.762 146.642 131.635 147.246 131.622C151.246 131.335 155.201 130.601 159.038 129.434C162.913 128.475 166.786 127.444 170.626 126.367C174.467 125.29 178.294 124.107 182.137 122.974C184.083 122.4 186.03 121.826 187.937 121.117C188.918 120.828 189.9 120.538 190.835 120.152C191.807 119.921 192.738 119.541 193.594 119.026C193.86 118.896 194.071 118.676 194.19 118.405C194.31 118.135 194.329 117.83 194.246 117.546C194.162 117.262 193.98 117.017 193.733 116.854C193.486 116.692 193.189 116.621 192.895 116.656Z" fill="black"/>
<path d="M177.617 64.9537C177.2 64.7975 176.753 64.7335 176.309 64.7661C175.864 64.7987 175.432 64.9271 175.042 65.1425L172.148 66.1243L166.341 68.0201C162.363 69.1928 158.442 70.4958 154.532 71.6485C150.622 72.8012 146.712 73.9539 142.784 74.9831L136.892 76.5912C134.891 76.9773 132.959 77.6585 131.159 78.6124C130.708 78.8925 130.7 79.7411 131.346 79.8084C133.309 79.8496 135.267 79.5829 137.147 79.018L143.292 77.5194C147.242 76.5021 151.177 75.434 155.071 74.2863C158.964 73.1387 162.891 71.981 166.754 70.7317C168.718 70.1529 170.664 69.579 172.566 68.8528L175.46 67.8711C176.492 67.5667 177.559 67.2523 178.104 66.3556C178.168 66.2323 178.205 66.0973 178.215 65.9588C178.225 65.8204 178.207 65.6813 178.161 65.5502C178.116 65.4191 178.044 65.2985 177.95 65.196C177.857 65.0935 177.743 65.011 177.617 64.9537Z" fill="black"/>
<path d="M174.092 53.997C166.34 56.2825 158.604 58.6057 150.886 60.9668C147.078 62.0895 143.319 63.3816 139.557 64.6009C135.679 65.762 131.876 67.1596 128.17 68.7858C127.363 69.1707 127.997 70.198 128.762 70.0462C132.643 69.218 136.476 68.1743 140.241 66.9199L151.853 63.4968C159.518 61.1636 167.197 58.8998 174.891 56.7054C175.25 56.5995 175.552 56.3553 175.731 56.0265C175.911 55.6977 175.952 55.3112 175.846 54.952C175.74 54.5929 175.496 54.2905 175.167 54.1114C174.838 53.9323 174.452 53.8912 174.092 53.997Z" fill="black"/>
<path d="M36.9475 95.2357C35.8579 95.2097 34.7762 95.4261 33.7805 95.8692C32.7848 96.3122 31.8999 96.971 31.1898 97.7977C30.7247 98.32 30.3677 98.9292 30.1394 99.5901C29.9111 100.251 29.816 100.951 29.8597 101.649C29.8207 101.935 29.8012 102.223 29.8014 102.512C29.8613 103.962 30.3816 105.355 31.2868 106.49C32.2686 107.671 33.6245 108.482 35.1299 108.788C36.6353 109.093 38.1999 108.876 39.5648 108.171C40.9726 107.575 42.1491 106.539 42.9175 105.218C43.6858 103.896 44.0046 102.361 43.8257 100.843C43.4404 99.2902 42.5616 97.9041 41.3214 96.8929C40.0811 95.8818 38.5464 95.3003 36.9475 95.2357ZM39.2568 106.127C38.3775 106.751 37.3167 107.066 36.2396 107.024C35.1625 106.983 34.1294 106.586 33.3011 105.896C32.4913 105.12 31.9432 104.111 31.7328 103.01C31.7328 103.01 31.7328 103.01 31.7029 102.908C31.6111 102.284 31.6491 101.647 31.8146 101.038C31.9801 100.429 32.2695 99.8605 32.6647 99.3683C33.5821 98.2754 34.8913 97.5856 36.3115 97.447C37.4303 97.3902 38.5383 97.6898 39.4761 98.3027C40.4138 98.9156 41.133 99.8102 41.5301 100.858C41.7938 101.864 41.7132 102.929 41.3012 103.884C40.8892 104.839 40.1695 105.629 39.2568 106.127Z" fill="black"/>
<path d="M62.2834 87.5645C60.7105 87.4718 59.1518 87.9079 57.8554 88.8035C56.5591 89.6991 55.5996 91.0027 55.1299 92.5067C54.9487 93.3357 54.947 94.1939 55.125 95.0236C55.3029 95.8534 55.6564 96.6354 56.1616 97.3172C56.97 98.4203 58.1589 99.1843 59.4982 99.4613C60.123 99.6968 60.7829 99.8256 61.4504 99.8425C63.0974 99.8553 64.6877 99.2418 65.8994 98.1263C67.1111 97.0108 67.8537 95.4766 67.9768 93.8342C68.0054 92.2604 67.432 90.7352 66.3738 89.57C65.3157 88.4047 63.8526 87.6874 62.2834 87.5645ZM62.4243 98.0284C61.5427 98.2667 60.6114 98.2475 59.7403 97.9733C59.5646 97.887 59.3946 97.7897 59.2312 97.6818C58.8145 97.3728 58.4455 97.0043 58.136 96.588C57.4376 95.7835 57.0498 94.7559 57.0427 93.6906C57.1508 92.627 57.6227 91.6333 58.3787 90.8775C59.1347 90.1216 60.1285 89.6499 61.1921 89.5421C62.2671 89.4153 63.3501 89.7014 64.2222 90.3425C65.0942 90.9837 65.6903 91.9321 65.8899 92.9959C66.0645 94.1187 65.8027 95.2658 65.1582 96.2016C64.5138 97.1374 63.5355 97.7911 62.4243 98.0284Z" fill="black"/>
<path d="M58.0351 149.917C57.1473 149.017 56.0472 148.354 54.836 147.99C53.6105 147.518 52.2531 147.518 51.0277 147.991C50.906 148.065 50.8091 148.174 50.7491 148.304C50.6892 148.433 50.6689 148.578 50.6908 148.719C50.7127 148.86 50.7758 148.991 50.8723 149.096C50.9687 149.202 51.0941 149.276 51.2327 149.31C52.0803 149.502 52.9596 149.427 53.8123 149.635C54.5919 149.831 55.3227 150.185 55.9591 150.677C56.5888 151.135 57.0726 151.766 57.3522 152.493C57.6318 153.22 57.6953 154.012 57.5351 154.775C57.3938 155.569 57.0255 156.306 56.4747 156.896C55.9239 157.486 55.2141 157.904 54.431 158.1C53.5699 158.247 52.6862 158.189 51.852 157.93C51.0178 157.67 50.2567 157.218 49.6308 156.608C48.9878 156.052 48.5096 155.331 48.2485 154.522C47.9874 153.714 47.9533 152.849 48.15 152.022C48.2972 151.647 47.6846 151.442 47.5105 151.787C46.9737 152.599 46.7218 153.567 46.7942 154.537C46.9328 155.514 47.3194 156.439 47.9172 157.224C48.6239 158.136 49.5406 158.864 50.5892 159.347C51.6379 159.829 52.7875 160.05 53.9402 159.993C55.0947 159.91 56.2018 159.5 57.1326 158.812C58.0633 158.124 58.7793 157.186 59.1971 156.106C59.6214 155.073 59.7375 153.938 59.5313 152.84C59.3251 151.742 58.8054 150.727 58.0351 149.917Z" fill="black"/>
<path d="M83.7318 143.722C83.1741 142.318 82.1279 141.163 80.7859 140.469C79.733 140.002 78.5841 139.791 77.4339 139.855C76.2837 139.919 75.1651 140.255 74.1702 140.836C73.1753 141.416 72.3327 142.225 71.7117 143.195C71.0907 144.166 70.7092 145.27 70.5985 146.416C70.6219 147.259 70.8155 148.088 71.1677 148.853C71.5199 149.619 72.0234 150.306 72.6479 150.872C73.3053 151.391 74.0465 151.795 74.8396 152.065L75.3426 152.211L75.5618 152.331C76.7595 152.743 78.0506 152.8 79.2802 152.496C80.5098 152.192 81.6256 151.54 82.4938 150.618C83.3621 149.696 83.9458 148.543 84.1751 147.297C84.4044 146.052 84.2695 144.767 83.7865 143.596L83.7318 143.722ZM81.1728 149.334C80.6456 149.938 79.9785 150.405 79.2297 150.693C78.4809 150.981 77.6731 151.082 76.8765 150.987C76.0939 150.897 75.3461 150.613 74.7016 150.161C74.0571 149.708 73.5364 149.101 73.1871 148.395C73.0295 148.019 72.914 147.627 72.8428 147.227C72.6523 146.191 72.8339 145.122 73.3554 144.207C73.8769 143.293 74.7048 142.592 75.6929 142.228C76.6442 141.739 77.7359 141.594 78.7819 141.819C79.8279 142.044 80.7635 142.625 81.4291 143.463C82.04 144.333 82.3461 145.38 82.2998 146.442C82.2534 147.504 81.8572 148.52 81.1728 149.334Z" fill="black"/>
<path d="M72.4738 205.264L72.419 205.078C72.3065 204.868 72.1793 204.665 72.0381 204.473C71.9746 204.365 71.9016 204.264 71.8199 204.169L71.7799 204.034C71.6115 203.862 71.4346 203.7 71.2498 203.546L71.0864 203.429C70.9812 203.378 70.8788 203.323 70.7796 203.262C70.6715 203.198 70.5574 203.145 70.4389 203.104L70.172 203.073C69.9192 202.998 69.6621 202.938 69.402 202.895L69.2327 202.945L68.9031 202.95L68.5307 203.06L68.3445 203.115C68.1028 203.167 67.8652 203.238 67.6336 203.324L67.4643 203.374L67.075 203.489C66.8601 203.609 66.6539 203.743 66.4577 203.892L66.3223 203.932L66.0795 204.169C65.9027 204.332 65.7396 204.509 65.5918 204.699L65.5033 204.835L65.3092 205.113C65.1941 205.316 65.0898 205.525 64.9969 205.739C64.9183 205.909 64.8736 206.07 64.7812 206.318C64.6887 206.566 64.5713 206.729 64.4907 206.955C64.4188 207.116 64.2965 207.249 64.1424 207.334C64.308 208.07 64.6505 208.754 65.1402 209.328C65.63 209.902 66.2521 210.347 66.9529 210.627C67.8485 210.915 68.809 210.935 69.7159 210.684C70.6228 210.433 71.4363 209.922 72.056 209.214C72.5596 208.553 72.8137 207.735 72.7736 206.905C72.792 206.474 72.7156 206.045 72.5498 205.647C72.5606 205.496 72.5088 205.383 72.4738 205.264Z" fill="#16C995"/>
<path d="M94.0265 194.366C93.0135 194.114 91.9445 194.214 90.9962 194.651C90.0479 195.087 89.2768 195.835 88.8105 196.769C88.5188 197.436 88.368 198.156 88.3674 198.885C88.3669 199.613 88.5165 200.334 88.8071 201.001C89.0094 201.282 89.2398 201.54 89.4948 201.774C90.4017 202.627 91.5801 203.133 92.823 203.203C93.9984 203.163 95.1218 202.708 95.9938 201.919C96.8658 201.13 97.4301 200.057 97.5867 198.892C97.6992 197.822 97.3902 196.751 96.7253 195.906C96.0605 195.061 95.0923 194.509 94.0265 194.366Z" fill="#16C995"/>
<path d="M179.391 150.417C156.602 156.326 133.907 162.556 111.308 169.107C100.068 172.421 88.8282 175.734 77.5966 179.137C71.9541 180.8 66.2882 182.55 60.5988 184.387C55.3255 186.034 50.0502 187.736 44.7041 189.073C48.7248 200.84 52.9036 212.56 57.2404 224.234C58.4753 227.55 59.7005 231.144 62.2576 233.702C65.1176 236.539 68.9309 236.555 72.8533 235.693C82.9991 233.475 93.0899 230.758 103.16 228.158C113.23 225.557 123.293 222.995 133.345 220.271C137.894 219.04 142.429 217.759 146.956 216.516C151.484 215.274 155.973 213.711 160.428 212.287C170.334 209.128 180.199 205.834 190.064 202.539C199.93 199.244 209.869 196.075 219.612 192.43C223.358 191.032 226.563 188.983 227.434 185.01C228.228 181.464 227.249 177.705 226.496 174.339C224.007 162.942 221.351 151.582 218.528 140.259C218.357 140.467 218.122 140.613 217.86 140.677C205.096 143.998 192.126 147.123 179.391 150.417ZM72.8959 211.248C71.8147 212.177 70.4652 212.735 69.0441 212.843C67.623 212.951 66.2046 212.602 64.9957 211.847C63.9104 211.092 63.1126 209.991 62.7321 208.725C62.3656 207.483 62.4559 206.151 62.9867 204.97C63.2135 204.262 63.576 203.605 64.0541 203.036C65.0129 201.88 66.3303 201.077 67.7973 200.755C69.1161 200.48 70.4892 200.649 71.7013 201.237C72.9135 201.825 73.8963 202.799 74.4958 204.006C75.0962 205.226 75.2564 206.615 74.9494 207.94C74.6424 209.264 73.887 210.442 72.8112 211.273L72.8959 211.248ZM99.3592 200.411C98.9865 201.561 98.3075 202.588 97.3952 203.381C96.4829 204.174 95.3718 204.703 94.1812 204.913C92.9906 205.122 91.7655 205.002 90.6375 204.568C89.5096 204.133 88.5214 203.399 87.7792 202.445C87.7792 202.445 87.7342 202.293 87.7093 202.208C86.9185 201.142 86.4931 199.85 86.4964 198.523C86.4997 197.195 86.9316 195.905 87.7276 194.843C88.6907 193.627 90.0277 192.762 91.5319 192.381C93.0361 192.001 94.6237 192.127 96.0491 192.74C96.7713 193.027 97.4289 193.455 97.9835 193.999C98.5381 194.544 98.9785 195.193 99.2789 195.91C99.5793 196.627 99.7336 197.396 99.7329 198.174C99.7322 198.951 99.5764 199.72 99.2746 200.436L99.3592 200.411ZM210.217 172.165C209.349 172.881 208.314 173.363 207.208 173.567L204.304 174.515C202.341 175.094 200.424 175.77 198.47 176.382C194.493 177.555 190.498 178.733 186.52 179.905C182.542 181.078 178.512 182.137 174.477 183.179C172.531 183.753 170.522 184.18 168.546 184.652C166.591 185.293 164.536 185.574 162.48 185.483C161.825 185.382 161.842 184.567 162.295 184.232C164.143 183.196 166.152 182.479 168.238 182.112L174.142 180.482C178.052 179.329 182.009 178.273 185.92 177.12C189.83 175.967 193.757 174.81 197.637 173.555C199.668 172.957 201.7 172.358 203.669 171.612L206.614 170.743C207.555 170.297 208.595 170.105 209.633 170.185C209.833 170.244 210.014 170.355 210.158 170.506C210.302 170.657 210.404 170.843 210.455 171.045C210.505 171.248 210.502 171.46 210.445 171.661C210.389 171.861 210.281 172.044 210.132 172.19L210.217 172.165ZM207.987 160.606C207.852 160.974 207.598 161.286 207.266 161.494C206.935 161.701 206.543 161.793 206.154 161.754L205.646 161.903L204.093 162.564C203.18 162.962 202.257 163.326 201.329 163.673C199.478 164.384 197.607 165.028 195.699 165.608C191.755 166.771 187.794 167.939 183.775 168.847C179.756 169.756 175.729 170.76 171.767 171.799C167.804 172.838 163.874 174.236 159.887 175.19C158.906 175.48 158.162 174.08 159.135 173.572C163.108 171.76 167.253 170.347 171.506 169.355C175.602 168.147 179.781 167.155 183.912 166.066C188.043 164.977 192.133 163.808 196.184 162.448C198.196 161.782 200.187 161.047 202.158 160.245C203.207 159.808 204.225 159.268 205.289 158.881C205.665 158.682 206.095 158.606 206.518 158.663C206.94 158.719 207.334 158.907 207.645 159.198C207.832 159.381 207.957 159.617 208.003 159.874C208.049 160.131 208.014 160.395 207.902 160.631L207.987 160.606Z" fill="white"/>
<path d="M75.4662 141.828C74.4781 142.191 73.6501 142.892 73.1286 143.807C72.6071 144.721 72.4255 145.791 72.616 146.826C72.6873 147.227 72.8027 147.619 72.9603 147.994C73.3096 148.7 73.8303 149.307 74.4749 149.76C75.1194 150.213 75.8671 150.497 76.6498 150.586C77.4493 150.681 78.2598 150.579 79.0113 150.29C79.7628 150.002 80.4326 149.534 80.963 148.928C81.6085 148.106 81.9702 147.097 81.9938 146.052C82.0174 145.006 81.7016 143.982 81.0938 143.131C80.4431 142.307 79.5314 141.729 78.5086 141.493C77.4858 141.256 76.4128 141.374 75.4662 141.828Z" fill="#16C995"/>
<path d="M45.3866 67.9398C51.3967 65.9841 57.4068 64.0284 63.4268 62.1066C69.1929 60.2596 74.9471 58.4346 80.828 56.9769C84.2135 55.9789 87.549 54.8116 90.9245 53.7798C110.241 47.8648 129.688 42.3955 149.267 37.372C154.087 36.1228 158.916 34.9018 163.752 33.7091C168.569 32.51 173.432 31.0948 178.331 30.2393C179.946 29.9316 181.605 29.9424 183.216 30.2711C180.553 28.3278 177.761 26.5692 174.857 25.0079C170.535 22.4551 166.222 19.8877 161.916 17.3057C160.636 16.5237 159.398 15.6929 158.16 14.8621C157.006 14.3283 155.811 13.8868 154.587 13.5417C151.757 12.803 148.794 12.7258 145.929 13.3161C142.765 13.8807 139.664 14.9054 136.573 15.7797C123.279 19.5515 109.952 23.149 96.6352 26.7803L91.3986 28.1768L86.2419 29.8442C73.0846 34.0172 59.9373 38.224 46.7401 42.2616C43.6424 43.1748 40.5278 44.093 37.5269 45.272C34.8321 46.3762 32.4277 48.0859 30.4999 50.2688C29.6552 51.2193 28.891 52.2385 28.2152 53.3157C27.6255 54.6854 27.0358 56.0551 26.3853 57.406C24.1573 61.9142 21.9203 66.4127 19.6743 70.9016C18.0546 73.8267 16.6509 76.8662 15.4742 79.9958C18.4449 76.6547 23.0322 75.3024 27.1534 73.8668L45.3866 67.9398Z" fill="white"/>
<path d="M200.482 83.0991C198.4 83.7128 196.318 84.3266 194.269 84.9304L164.867 93.598C141.755 100.411 118.593 107.135 95.3802 113.769C83.7302 117.105 72.0713 120.432 60.4034 123.749L43.015 128.672C37.6321 130.259 32.2323 131.851 26.7566 133.061C30.223 144.819 33.8361 156.535 37.5959 168.207C39.6726 174.586 41.7985 180.945 43.9735 187.283C49.833 185.003 55.861 183.171 61.8522 181.276C68.148 179.292 74.432 177.329 80.7428 175.395C103.237 168.506 125.871 162.091 148.577 155.858C159.925 152.746 171.259 149.754 182.58 146.883C194.08 143.953 205.587 140.984 217.164 138.38C217.474 138.297 217.803 138.338 218.082 138.496C216.272 131.192 214.407 123.91 212.488 116.651C209.486 105.344 206.328 94.0703 203.015 82.8306L201.768 83.5295C201.538 83.631 201.279 83.6432 201.041 83.5636C200.803 83.4839 200.604 83.3183 200.482 83.0991ZM59.0896 155.616C58.6784 156.7 57.9652 157.644 57.0345 158.335C56.1038 159.027 54.9944 159.438 53.8376 159.519C52.6849 159.577 51.5353 159.355 50.4867 158.873C49.438 158.391 48.5214 157.662 47.8147 156.75C47.2169 155.965 46.8302 155.04 46.6916 154.064C46.6192 153.093 46.8712 152.126 47.408 151.314C47.582 150.968 48.1697 151.089 48.0475 151.548C47.8508 152.375 47.8848 153.24 48.1459 154.049C48.4071 154.857 48.8852 155.579 49.5282 156.134C50.1541 156.744 50.9152 157.197 51.7494 157.456C52.5837 157.715 53.4674 157.774 54.3284 157.626C55.1115 157.431 55.8213 157.013 56.3721 156.423C56.9229 155.833 57.2912 155.096 57.4326 154.301C57.5928 153.539 57.5293 152.746 57.2497 152.019C56.97 151.292 56.4863 150.661 55.8565 150.203C55.2202 149.712 54.4893 149.357 53.7097 149.162C52.8571 148.953 51.9778 149.028 51.1301 148.836C50.9915 148.802 50.8661 148.728 50.7697 148.623C50.6733 148.517 50.6102 148.386 50.5882 148.245C50.5663 148.104 50.5866 147.96 50.6466 147.83C50.7065 147.701 50.8034 147.592 50.9251 147.517C52.1506 147.045 53.5079 147.044 54.7335 147.517C55.9446 147.88 57.0448 148.543 57.9325 149.444C58.7026 150.25 59.2219 151.262 59.4274 152.358C59.6328 153.454 59.5154 154.585 59.0896 155.616ZM80.9032 151.411C80.0809 151.91 79.1586 152.22 78.2024 152.321C77.2461 152.422 76.2794 152.31 75.3713 151.993L75.1522 151.874L74.6491 151.728C73.8561 151.457 73.1149 151.054 72.4574 150.534C71.833 149.968 71.3295 149.282 70.9773 148.516C70.6251 147.75 70.4315 146.921 70.4081 146.079C70.4969 144.914 70.8652 143.788 71.4816 142.795C72.098 141.803 72.9445 140.974 73.9493 140.378C74.9542 139.782 76.0878 139.437 77.2542 139.372C78.4206 139.307 79.5855 139.525 80.6502 140.005C82.0031 140.69 83.0618 141.842 83.6299 143.248C84.2501 144.707 84.3152 146.343 83.8129 147.846C83.3107 149.35 82.2757 150.618 80.9032 151.411ZM143.935 119.142C147.541 117.671 151.229 116.406 154.979 115.353C158.771 114.235 162.545 113.122 166.337 112.004C170.129 110.887 173.904 109.774 177.695 108.656C181.487 107.538 185.266 106.314 189.087 105.482C189.258 105.409 189.444 105.373 189.63 105.377C189.817 105.38 190.001 105.423 190.17 105.503C190.338 105.583 190.488 105.697 190.61 105.839C190.731 105.981 190.821 106.147 190.874 106.326C190.927 106.505 190.941 106.693 190.916 106.878C190.891 107.063 190.827 107.241 190.728 107.399C190.63 107.558 190.499 107.693 190.344 107.798C190.189 107.902 190.014 107.972 189.83 108.004C186.122 109.281 182.247 110.24 178.459 111.246L167.264 114.399C163.557 115.492 159.833 116.59 156.126 117.682C152.419 118.775 148.585 120.126 144.733 120.912C143.701 121.032 142.862 119.624 143.935 119.142ZM193.431 118.534C192.568 119.049 191.632 119.431 190.655 119.665L187.756 120.63C185.81 121.203 183.893 121.879 181.956 122.487C178.114 123.619 174.288 124.747 170.446 125.88C166.603 127.012 162.733 127.988 158.857 128.946C155.021 130.113 151.065 130.847 147.065 131.135C146.462 131.147 146.113 130.275 146.731 130.001C150.412 128.474 154.221 127.277 158.114 126.424C161.94 125.296 165.822 124.299 169.652 123.188C173.483 122.077 177.321 120.928 181.138 119.71L186.943 117.87L189.842 116.906C190.762 116.514 191.737 116.264 192.732 116.164C193.026 116.124 193.324 116.19 193.573 116.35C193.823 116.509 194.008 116.751 194.096 117.034C194.183 117.317 194.168 117.622 194.053 117.894C193.937 118.167 193.729 118.39 193.465 118.524L193.431 118.534Z" fill="white"/>
<path d="M14.6501 88.3708C15.1442 91.1873 15.8111 93.9707 16.6471 96.7053C17.9019 101.524 19.2125 106.344 20.54 111.159C22.3776 117.83 24.2879 124.497 26.244 131.133C32.256 129.121 38.4147 127.545 44.5085 125.748L64.1959 120.074C87.3518 113.37 110.511 106.635 133.672 99.8685C145.307 96.4387 156.942 93.0089 168.576 89.5791L194.526 81.9295C197.031 81.1909 199.569 80.314 202.109 79.6939C200.113 72.923 198.117 66.1521 195.952 59.4311C194.448 54.6617 192.925 49.9102 191.382 45.1766C190.433 41.526 189.031 38.0083 187.21 34.7053C186.645 34.2465 186.029 33.8539 185.374 33.5353C183.582 32.6552 181.564 32.3391 179.588 32.6286C176.985 33.0587 174.408 33.6281 171.867 34.3344C152.859 38.8828 133.954 43.8425 115.152 49.2134C100.122 53.4603 85.2079 58.0407 70.1824 62.3045C67.8136 63.1316 65.4349 63.9248 63.0512 64.7011C51.6047 68.4986 40.1332 72.2115 28.6836 75.9363C24.4698 77.3072 19.4075 78.6708 16.5843 82.2628C15.2718 84.0237 14.5905 86.1753 14.6501 88.3708ZM177.9 65.9117C177.38 66.893 176.279 67.0889 175.256 67.4271L172.363 68.4089C170.416 68.9827 168.504 69.6751 166.551 70.2877C162.684 71.5257 158.79 72.7106 154.867 73.8424C150.974 74.9901 147.064 76.1428 143.089 77.0754L136.929 78.5233C135.048 79.0882 133.09 79.3549 131.127 79.3136C130.482 79.2463 130.489 78.3978 130.94 78.1177C132.741 77.1638 134.673 76.4826 136.673 76.0964L142.565 74.4884C146.478 73.4084 150.395 72.2969 154.314 71.1538C158.292 69.9811 162.253 68.8135 166.123 67.5254L171.93 65.6296L174.823 64.6478C175.213 64.4324 175.646 64.3039 176.09 64.2713C176.535 64.2387 176.981 64.3027 177.399 64.459C177.533 64.5141 177.654 64.5973 177.754 64.703C177.854 64.8087 177.93 64.9344 177.978 65.0719C178.025 65.2094 178.043 65.3553 178.03 65.5001C178.016 65.645 177.972 65.7853 177.9 65.9117ZM128.019 68.271C131.726 66.6449 135.529 65.2473 139.407 64.0862C143.168 62.8668 146.947 61.6425 150.736 60.4521C158.436 58.0717 166.171 55.7485 173.942 53.4823C174.118 53.4076 174.308 53.371 174.5 53.375C174.691 53.3789 174.88 53.4232 175.053 53.5051C175.226 53.587 175.38 53.7045 175.504 53.85C175.629 53.9955 175.721 54.1656 175.775 54.3493C175.83 54.533 175.844 54.726 175.819 54.9158C175.793 55.1056 175.727 55.2877 175.626 55.4504C175.525 55.6131 175.391 55.7526 175.232 55.8597C175.074 55.9669 174.894 56.0393 174.705 56.0722C167.02 58.3376 159.341 60.6014 151.667 62.8636L140.055 66.2867C136.29 67.5411 132.458 68.5848 128.577 69.413C127.862 69.7341 127.228 68.7067 128.019 68.271ZM54.9794 91.9918C55.4492 90.4879 56.4086 89.1843 57.7049 88.2887C59.0013 87.3931 60.56 86.957 62.1329 87.0497C63.7137 87.1693 65.188 87.8922 66.2506 89.0688C67.3132 90.2453 67.8828 91.7854 67.8413 93.3702C67.7181 95.0125 66.9755 96.5468 65.7638 97.6623C64.5521 98.7778 62.9619 99.3913 61.3149 99.3785C60.6474 99.3616 59.9875 99.2327 59.3627 98.9973C58.0234 98.7203 56.8345 97.9563 56.0261 96.8532C55.5209 96.1714 55.1674 95.3893 54.9895 94.5596C54.8115 93.7299 54.8132 92.8717 54.9944 92.0426L54.9794 91.9918ZM29.6658 102.048C29.6656 101.759 29.6851 101.471 29.724 101.185C29.6804 100.487 29.7755 99.7871 30.0038 99.1262C30.2321 98.4652 30.5891 97.856 31.0542 97.3337C31.9277 96.3098 33.0677 95.5477 34.3479 95.1319C35.6281 94.7162 36.9983 94.6631 38.3068 94.9785C39.6153 95.2939 40.8109 95.9654 41.7611 96.9187C42.7113 97.872 43.379 99.0698 43.6901 100.379C43.8689 101.897 43.5502 103.432 42.7819 104.754C42.0135 106.075 40.837 107.111 39.4292 107.707C38.0643 108.412 36.4996 108.629 34.9942 108.324C33.4888 108.018 32.133 107.207 31.1512 106.026C30.246 104.892 29.7257 103.498 29.6658 102.048Z" fill="white"/>
<path d="M59.0947 97.218C59.258 97.3259 59.428 97.4233 59.6037 97.5095C60.4748 97.7838 61.4062 97.8029 62.2877 97.5646C63.3948 97.3236 64.3682 96.6692 65.0091 95.7348C65.6501 94.8005 65.9102 93.6568 65.7364 92.5372C65.5368 91.4733 64.9407 90.5249 64.0687 89.8837C63.1966 89.2426 62.1136 88.9565 61.0386 89.0833C59.975 89.1911 58.9812 89.6628 58.2252 90.4187C57.4692 91.1746 56.9973 92.1682 56.8893 93.2318C56.8963 94.2971 57.2841 95.3248 57.9825 96.1292C58.2976 96.545 58.6723 96.9119 59.0947 97.218Z" fill="white"/>
<path d="M39.1211 105.663C40.058 105.17 40.7989 104.372 41.2217 103.402C41.6446 102.431 41.7241 101.345 41.4472 100.323C41.0501 99.2755 40.331 98.3809 39.3932 97.768C38.4554 97.1552 37.3474 96.8555 36.2286 96.9123C34.8084 97.0509 33.4992 97.7407 32.5818 98.8336C32.1866 99.3258 31.8972 99.8942 31.7317 100.503C31.5662 101.112 31.5282 101.749 31.62 102.374C31.62 102.374 31.62 102.374 31.6499 102.475C31.8318 103.596 32.3621 104.63 33.1655 105.432C33.9938 106.122 35.0269 106.519 36.104 106.56C37.1811 106.602 38.2418 106.287 39.1211 105.663Z" fill="#16C995"/>
<path d="M38.9192 96.6158C37.7905 96.1734 36.5613 96.0521 35.368 96.2654C34.1746 96.4788 33.0636 97.0184 32.1581 97.8245C31.2526 98.6306 30.588 99.6716 30.238 100.832C29.888 101.993 29.8661 103.228 30.175 104.4C30.3896 105.128 31.6343 104.982 31.5283 104.185C31.3558 102.975 31.582 101.742 32.1727 100.671C32.7633 99.6009 33.6863 98.752 34.8021 98.2526C35.9894 97.8129 37.2949 97.8131 38.482 98.2533C39.068 98.452 39.6253 98.7269 40.1397 99.0709C40.6518 99.4351 41.0942 99.875 41.6233 100.234C41.6825 100.263 41.7482 100.277 41.8141 100.274C41.88 100.27 41.944 100.25 42 100.215C42.056 100.18 42.1021 100.132 42.1341 100.074C42.1661 100.016 42.1828 99.9513 42.1828 99.8853C41.9684 99.1044 41.5549 98.3926 40.9829 97.8195C40.4108 97.2463 39.6997 96.8316 38.9192 96.6158Z" fill="white"/>
<path d="M96.577 194.847C95.5374 193.953 94.2177 193.45 92.8465 193.426C91.8537 193.43 90.8821 193.713 90.0425 194.243C89.2029 194.773 88.5293 195.528 88.0984 196.423C87.6676 197.317 87.4969 198.315 87.6059 199.302C87.7149 200.288 88.0992 201.225 88.7148 202.004C88.7979 202.098 88.9117 202.159 89.0359 202.177C89.1601 202.195 89.2867 202.168 89.393 202.102C89.4993 202.035 89.5785 201.933 89.6163 201.813C89.6542 201.693 89.6484 201.564 89.5998 201.448C89.0467 200.415 88.9187 199.206 89.2429 198.08C89.5672 196.954 90.3181 195.998 91.3359 195.417C91.8933 195.186 92.4961 195.087 93.0979 195.127C93.6997 195.166 94.2844 195.344 94.8068 195.645C95.3614 195.925 95.8562 196.31 96.2635 196.779C96.659 197.291 96.9955 197.846 97.2664 198.434C97.3154 198.513 97.3862 198.575 97.4703 198.615C97.5544 198.654 97.6481 198.667 97.7399 198.654C97.8316 198.641 97.9175 198.601 97.9869 198.539C98.0564 198.478 98.1064 198.397 98.1308 198.308C98.1702 197.648 98.0495 196.989 97.7789 196.387C97.5083 195.784 97.096 195.256 96.577 194.847Z" fill="white"/>
</svg>
