<svg width="38" height="23" viewBox="0 0 38 23" fill="none" xmlns="http://www.w3.org/2000/svg">
<path d="M6.28263 23V3.928H0.010625V0.599998H16.2026V3.928H9.73863V23H6.28263ZM20.4641 23V0.599998H29.8081C31.2375 0.599998 32.4428 0.813332 33.4241 1.24C34.4055 1.66667 35.1415 2.30667 35.6321 3.16C36.1441 3.992 36.4001 5.016 36.4001 6.232C36.4001 7.448 36.0588 8.48267 35.3761 9.336C34.7148 10.1893 33.7868 10.776 32.5921 11.096V10.456C33.5948 10.6693 34.4695 11.0533 35.2161 11.608C35.9628 12.1413 36.5388 12.8133 36.9441 13.624C37.3708 14.4347 37.5841 15.3627 37.5841 16.408C37.5841 17.4747 37.4135 18.424 37.0721 19.256C36.7521 20.0667 36.2615 20.7493 35.6001 21.304C34.9601 21.8587 34.1815 22.2853 33.2641 22.584C32.3468 22.8613 31.3015 23 30.1281 23H20.4641ZM23.9201 19.672H29.9361C30.8108 19.672 31.5468 19.544 32.1441 19.288C32.7628 19.032 33.2321 18.6587 33.5521 18.168C33.8935 17.656 34.0641 17.048 34.0641 16.344C34.0641 15.6827 33.8828 15.1173 33.5201 14.648C33.1788 14.1787 32.6881 13.8267 32.0481 13.592C31.4081 13.336 30.6508 13.208 29.7761 13.208H23.9201V19.672ZM23.9201 9.88H29.6161C30.2561 9.88 30.8215 9.752 31.3121 9.496C31.8241 9.24 32.2188 8.888 32.4961 8.44C32.7948 7.992 32.9441 7.48 32.9441 6.904C32.9441 5.944 32.6241 5.208 31.9841 4.696C31.3441 4.184 30.4268 3.928 29.2321 3.928H23.9201V9.88Z" fill="#463B73"/>
</svg>
