<?xml version="1.0" encoding="UTF-8" standalone="no"?>
<svg
   width="40"
   height="40"
   viewBox="0 0 40 40"
   fill="none"
   version="1.1"
   id="svg16"
   sodipodi:docname="logo.svg"
   inkscape:version="1.2.2 (b0a8486541, 2022-12-01)"
   xmlns:inkscape="http://www.inkscape.org/namespaces/inkscape"
   xmlns:sodipodi="http://sodipodi.sourceforge.net/DTD/sodipodi-0.dtd"
   xmlns="http://www.w3.org/2000/svg"
   xmlns:svg="http://www.w3.org/2000/svg">
  <defs
     id="defs20" />
  <sodipodi:namedview
     id="namedview18"
     pagecolor="#ffffff"
     bordercolor="#666666"
     borderopacity="1.0"
     inkscape:showpageshadow="2"
     inkscape:pageopacity="0.0"
     inkscape:pagecheckerboard="0"
     inkscape:deskcolor="#d1d1d1"
     showgrid="false"
     inkscape:zoom="12.801887"
     inkscape:cx="33.627856"
     inkscape:cy="19.997052"
     inkscape:window-width="3440"
     inkscape:window-height="1411"
     inkscape:window-x="0"
     inkscape:window-y="29"
     inkscape:window-maximized="1"
     inkscape:current-layer="svg16" />
  <path
     d="m 3.8613,12.253 c 2.56923,3.3932 4.95237,6.9234 7.1388,10.5748 h 4.2087 c -0.1781,-0.8504 -0.3086,-1.71 -0.391,-2.5748 -0.115,-0.2023 -0.2207,-0.4046 -0.3449,-0.6069 C 9.87313,12.1978 2.348,5.94958 0.609306,7.01623 -1.12938,8.0829 0.977285,17.1634 5.34702,24.5243 6.60104,23.5319 8.1294,22.9478 9.72593,22.8507 7.59313,19.4194 5.63579,15.8824 3.8613,12.253 Z"
     fill="#ffffff"
     id="path2" />
  <path
     d="m 28.7565,22.8047 c 2.1915,-3.6439 4.5792,-7.1663 7.1525,-10.5517 -1.7746,3.6236 -3.7351,7.1532 -5.8738,10.5747 1.5969,0.0954 3.1257,0.6796 4.3789,1.6736 C 38.7838,17.145 40.8537,8.03694 39.1518,6.99328 37.4499,5.94958 29.865,12.1749 25.2699,19.6231 c -0.1242,0.2023 -0.2254,0.4046 -0.345,0.6069 -0.0824,0.8649 -0.2129,1.7245 -0.391,2.5747 z"
     fill="#ffffff"
     id="path4" />
  <path
     d="m 19.8778,0 c -2.0423,0 -5.1747,9.26893 -5.1747,18.0184 0.0036,0.7388 0.045,1.4769 0.1242,2.2115 0.0794,0.8646 0.2068,1.7242 0.3818,2.5747 h 4.2087 c -0.2399,-5.5457 -0.0862,-11.1014 0.46,-16.62529 0.5463,5.52389 0.7,11.07959 0.46,16.62529 h 4.2087 c 0.1781,-0.8503 0.3086,-1.7099 0.391,-2.5747 0.0792,-0.7346 0.1206,-1.4727 0.1242,-2.2115 C 25.0479,9.26893 21.9155,0 19.8778,0 Z"
     fill="#ffffff"
     id="path6" />
  <path
     d="m 35.7546,30.6622 c -6e-4,-0.2212 -0.0129,-0.4422 -0.0368,-0.6621 0,-0.0735 0,-0.1471 -0.0368,-0.2161 -0.0165,-0.1544 -0.0411,-0.3079 -0.0736,-0.4598 0,-0.0827 -0.0414,-0.1609 -0.0644,-0.2436 -0.023,-0.0828 -0.069,-0.2621 -0.1104,-0.3908 L 35.3452,28.4507 C 35.2946,28.3266 35.2486,28.2024 35.1934,28.0828 L 35.083,27.8576 c -0.0598,-0.1196 -0.1241,-0.2391 -0.1931,-0.354 l -0.1242,-0.2024 c -0.0782,-0.1195 -0.161,-0.2344 -0.2438,-0.3494 l -0.1242,-0.1701 c -0.1012,-0.1226 -0.207,-0.2421 -0.3174,-0.3586 -0.0328,-0.0405 -0.0682,-0.0789 -0.1058,-0.1149 -0.1444,-0.1534 -0.298,-0.2976 -0.46,-0.4322 -1.118,-0.9315 -2.5279,-1.4408 -3.9833,-1.4391 H 10.2124 c -0.82933,-0.001 -1.6504,0.1645 -2.41446,0.4867 -0.764,0.3222 -1.45555,0.7947 -2.03346,1.3892 L 5.65869,26.4277 C 5.5483,26.5442 5.4425,26.6637 5.34131,26.7863 l -0.1242,0.1701 c -0.08279,0.115 -0.16558,0.2299 -0.24378,0.3494 -0.0782,0.1196 -0.08279,0.1334 -0.11959,0.2024 -0.0368,0.0689 -0.13799,0.2344 -0.19778,0.354 -0.05982,0.1195 -0.07362,0.1471 -0.10582,0.2252 -0.0322,0.0782 -0.10579,0.2438 -0.15639,0.3679 -0.0506,0.1241 -0.05979,0.1563 -0.08279,0.2391 -0.04528,0.1296 -0.08367,0.2616 -0.115,0.3954 -0.023,0.0781 -0.04599,0.1563 -0.06439,0.239 -0.0184,0.0828 -0.0552,0.2943 -0.0736,0.4598 0,0.0736 -0.0276,0.1426 -0.0322,0.2161 -0.02552,0.2244 -0.03934,0.45 -0.04139,0.6759 v 2.846 c 0.00262,0.6234 0.09716,1.2431 0.28058,1.839 0.30219,0.9612 0.83243,1.835 1.54552,2.5472 0.14259,0.1425 0.28978,0.2758 0.45997,0.4046 0.21527,0.1676 0.44108,0.3212 0.67615,0.4597 0.2198,0.1395 0.44873,0.2639 0.68533,0.3725 0.1242,0.0597 0.25301,0.1103 0.38641,0.1608 0.70606,0.2718 1.45586,0.412 2.21246,0.4138 h 19.3188 c 1.2408,0.0022 2.4537,-0.3677 3.4819,-1.062 0.661,-0.4515 1.2319,-1.0222 1.6836,-1.6828 0.6946,-1.0277 1.0647,-2.2402 1.0625,-3.4804 v -2.8368 z m -23.7667,3.577 c -0.424,0 -0.8384,-0.1257 -1.1909,-0.3611 -0.3525,-0.2354 -0.6272,-0.5701 -0.7894,-0.9615 -0.16227,-0.3915 -0.20473,-0.8223 -0.122,-1.2379 0.08267,-0.4157 0.2868,-0.7974 0.5866,-1.097 0.2998,-0.2997 0.6817,-0.5037 1.0975,-0.5864 0.4158,-0.0827 0.8468,-0.0403 1.2384,0.1219 0.3917,0.1622 0.7265,0.4368 0.962,0.7892 0.2356,0.3523 0.3612,0.7665 0.3612,1.1902 0,0.5683 -0.2258,1.1132 -0.6278,1.515 -0.4019,0.4018 -0.9472,0.6276 -1.5156,0.6276 z m 16.559,-0.8736 h -3.1232 c -0.3514,0 -0.6884,-0.1395 -0.9368,-0.3878 -0.2484,-0.2483 -0.388,-0.5852 -0.388,-0.9363 0,-0.3512 0.1396,-0.688 0.388,-0.9363 0.2484,-0.2484 0.5854,-0.3878 0.9368,-0.3878 h 3.1232 c 0.3512,0 0.6882,0.1394 0.9366,0.3878 0.2484,0.2483 0.388,0.5851 0.388,0.9363 0,0.3511 -0.1396,0.688 -0.388,0.9363 -0.2484,0.2483 -0.5854,0.3878 -0.9366,0.3878 z"
     fill="#ffffff"
     id="path8" />
  <path
     d="m 28.5972,27.5863 h -3.1246 c -0.7313,0 -1.3242,0.5926 -1.3242,1.3236 0,0.7311 0.5929,1.3237 1.3242,1.3237 h 3.1246 c 0.7314,0 1.3242,-0.5926 1.3242,-1.3237 0,-0.731 -0.5928,-1.3236 -1.3242,-1.3236 z"
     fill="#ffffff"
     id="path10" />
</svg>
