<svg width="106" height="40" viewBox="0 0 106 40" fill="none" xmlns="http://www.w3.org/2000/svg">
<path d="M3.8613 12.253C6.43053 15.6462 8.81367 19.1764 11.0001 22.8278H15.2088C15.0307 21.9774 14.9002 21.1178 14.8178 20.253C14.7028 20.0507 14.5971 19.8484 14.4729 19.6461C9.87313 12.1978 2.348 5.94958 0.609306 7.01623C-1.12938 8.0829 0.977285 17.1634 5.34702 24.5243C6.60104 23.5319 8.1294 22.9478 9.72593 22.8507C7.59313 19.4194 5.63579 15.8824 3.8613 12.253Z" fill="white"/>
<path d="M28.7565 22.8047C30.948 19.1608 33.3357 15.6384 35.909 12.253C34.1344 15.8766 32.1739 19.4062 30.0352 22.8277C31.6321 22.9231 33.1609 23.5073 34.4141 24.5013C38.7838 17.145 40.8537 8.03694 39.1518 6.99328C37.4499 5.94958 29.865 12.1749 25.2699 19.6231C25.1457 19.8254 25.0445 20.0277 24.9249 20.23C24.8425 21.0949 24.712 21.9545 24.5339 22.8047H28.7565Z" fill="white"/>
<path d="M19.8778 0C17.8355 0 14.7031 9.26893 14.7031 18.0184C14.7067 18.7572 14.7481 19.4953 14.8273 20.2299C14.9067 21.0945 15.0341 21.9541 15.2091 22.8046H19.4178C19.1779 17.2589 19.3316 11.7032 19.8778 6.17931C20.4241 11.7032 20.5778 17.2589 20.3378 22.8046H24.5465C24.7246 21.9543 24.8551 21.0947 24.9375 20.2299C25.0167 19.4953 25.0581 18.7572 25.0617 18.0184C25.0479 9.26893 21.9155 0 19.8778 0Z" fill="white"/>
<path d="M35.7546 30.6622C35.754 30.441 35.7417 30.22 35.7178 30.0001C35.7178 29.9266 35.7178 29.853 35.681 29.784C35.6645 29.6296 35.6399 29.4761 35.6074 29.3242C35.6074 29.2415 35.566 29.1633 35.543 29.0806C35.52 28.9978 35.474 28.8185 35.4326 28.6898L35.3452 28.4507C35.2946 28.3266 35.2486 28.2024 35.1934 28.0828L35.083 27.8576C35.0232 27.738 34.9589 27.6185 34.8899 27.5036L34.7657 27.3012C34.6875 27.1817 34.6047 27.0668 34.5219 26.9518L34.3977 26.7817C34.2965 26.6591 34.1907 26.5396 34.0803 26.4231C34.0475 26.3826 34.0121 26.3442 33.9745 26.3082C33.8301 26.1548 33.6765 26.0106 33.5145 25.876C32.3965 24.9445 30.9866 24.4352 29.5312 24.4369H10.2124C9.38307 24.4359 8.562 24.6014 7.79794 24.9236C7.03394 25.2458 6.34239 25.7183 5.76448 26.3128L5.65869 26.4277C5.5483 26.5442 5.4425 26.6637 5.34131 26.7863L5.21711 26.9564C5.13432 27.0714 5.05153 27.1863 4.97333 27.3058C4.89513 27.4254 4.89054 27.4392 4.85374 27.5082C4.81694 27.5771 4.71575 27.7426 4.65596 27.8622C4.59614 27.9817 4.58234 28.0093 4.55014 28.0874C4.51794 28.1656 4.44435 28.3312 4.39375 28.4553C4.34315 28.5794 4.33396 28.6116 4.31096 28.6944C4.26568 28.824 4.22729 28.956 4.19596 29.0898C4.17296 29.1679 4.14997 29.2461 4.13157 29.3288C4.11317 29.4116 4.07637 29.6231 4.05797 29.7886C4.05797 29.8622 4.03037 29.9312 4.02577 30.0047C4.00025 30.2291 3.98643 30.4547 3.98438 30.6806V33.5266C3.987 34.15 4.08154 34.7697 4.26496 35.3656C4.56715 36.3268 5.09739 37.2006 5.81048 37.9128C5.95307 38.0553 6.10026 38.1886 6.27045 38.3174C6.48572 38.485 6.71153 38.6386 6.9466 38.7771C7.1664 38.9166 7.39533 39.041 7.63193 39.1496C7.75613 39.2093 7.88494 39.2599 8.01834 39.3104C8.7244 39.5822 9.4742 39.7224 10.2308 39.7242H29.5496C30.7904 39.7264 32.0033 39.3565 33.0315 38.6622C33.6925 38.2107 34.2634 37.64 34.7151 36.9794C35.4097 35.9517 35.7798 34.7392 35.7776 33.499V30.6622H35.7546ZM11.9879 34.2392C11.5639 34.2392 11.1495 34.1135 10.797 33.8781C10.4445 33.6427 10.1698 33.308 10.0076 32.9166C9.84533 32.5251 9.80287 32.0943 9.8856 31.6787C9.96827 31.263 10.1724 30.8813 10.4722 30.5817C10.772 30.282 11.1539 30.078 11.5697 29.9953C11.9855 29.9126 12.4165 29.955 12.8081 30.1172C13.1998 30.2794 13.5346 30.554 13.7701 30.9064C14.0057 31.2587 14.1313 31.6729 14.1313 32.0966C14.1313 32.6649 13.9055 33.2098 13.5035 33.6116C13.1016 34.0134 12.5563 34.2392 11.9879 34.2392ZM28.5469 33.3656H25.4237C25.0723 33.3656 24.7353 33.2261 24.4869 32.9778C24.2385 32.7295 24.0989 32.3926 24.0989 32.0415C24.0989 31.6903 24.2385 31.3535 24.4869 31.1052C24.7353 30.8568 25.0723 30.7174 25.4237 30.7174H28.5469C28.8981 30.7174 29.2351 30.8568 29.4835 31.1052C29.7319 31.3535 29.8715 31.6903 29.8715 32.0415C29.8715 32.3926 29.7319 32.7295 29.4835 32.9778C29.2351 33.2261 28.8981 33.3656 28.5469 33.3656Z" fill="white"/>
<path d="M28.5972 27.5863H25.4726C24.7413 27.5863 24.1484 28.1789 24.1484 28.9099C24.1484 29.641 24.7413 30.2336 25.4726 30.2336H28.5972C29.3286 30.2336 29.9214 29.641 29.9214 28.9099C29.9214 28.1789 29.3286 27.5863 28.5972 27.5863Z" fill="white"/>
<path d="M50.323 27.77V15.1355H53.6164V20.7447L58.6209 15.1355H62.7054L57.9953 20.3033L62.7974 27.77H58.8969L55.7139 22.547L53.6164 24.4781V27.77H50.323ZM64.0587 27.77V18.0781H66.5425L66.7634 19.5677H66.8921C67.0394 19.2367 67.2167 18.9425 67.4254 18.6849C67.6467 18.4152 67.9101 18.2068 68.2167 18.0597C68.5354 17.9125 68.8854 17.839 69.2654 17.839C69.4861 17.839 69.6887 17.8635 69.8727 17.9125C70.0567 17.9493 70.1914 17.9922 70.2774 18.0413V20.6712H69.3207C68.9401 20.6712 68.6034 20.7263 68.3087 20.8367C68.0261 20.9347 67.7934 21.0941 67.6094 21.3149C67.4254 21.5233 67.2901 21.7807 67.2047 22.0873C67.1187 22.3938 67.0761 22.7493 67.0761 23.1539V27.77H64.0587ZM73.8921 27.9907C73.4874 27.9907 73.0881 27.9478 72.6961 27.862C72.3154 27.7884 71.9661 27.6535 71.6474 27.4574C71.3407 27.2489 71.0954 26.9669 70.9114 26.6114C70.7274 26.2559 70.6354 25.8083 70.6354 25.2689C70.6354 24.57 70.7827 23.9999 71.0767 23.5585C71.3714 23.1171 71.7947 22.7739 72.3461 22.5287C72.9107 22.2712 73.5854 22.0934 74.3701 21.9953C75.1674 21.8973 76.0567 21.8482 77.0381 21.8482V21.2413C77.0381 20.9593 76.9827 20.7263 76.8727 20.5425C76.7621 20.3463 76.5967 20.1991 76.3761 20.1011C76.1674 19.9907 75.8847 19.9355 75.5294 19.9355C75.2107 19.9355 74.9281 19.9723 74.6827 20.0459C74.4501 20.1195 74.2721 20.2298 74.1494 20.3769C74.0267 20.5118 73.9654 20.6773 73.9654 20.8735V21.039H71.0214C71.0094 20.9777 71.0034 20.9287 71.0034 20.8919C71.0034 20.8428 71.0034 20.7815 71.0034 20.7079C71.0034 20.1317 71.1814 19.629 71.5367 19.1999C71.9047 18.7708 72.4261 18.4398 73.1007 18.2068C73.7754 17.9739 74.5907 17.8574 75.5481 17.8574C76.4434 17.8574 77.2221 17.9677 77.8847 18.1884C78.5594 18.4091 79.0861 18.7463 79.4667 19.1999C79.8594 19.6535 80.0554 20.2482 80.0554 20.9838V25.1217C80.0554 25.3301 80.1107 25.4957 80.2214 25.6183C80.3441 25.7409 80.4914 25.8022 80.6627 25.8022H81.2881V27.6597C81.1534 27.7209 80.9387 27.7884 80.6441 27.862C80.3621 27.9478 80.0187 27.9907 79.6141 27.9907C79.1967 27.9907 78.8287 27.9355 78.5101 27.8252C78.2034 27.7271 77.9454 27.5861 77.7374 27.4022C77.5407 27.206 77.4061 26.9792 77.3327 26.7217H77.2034C76.9707 26.9669 76.6947 27.1876 76.3761 27.3838C76.0687 27.58 75.7074 27.7271 75.2901 27.8252C74.8854 27.9355 74.4194 27.9907 73.8921 27.9907ZM75.0141 25.9125C75.3087 25.9125 75.5787 25.8697 75.8241 25.7838C76.0687 25.698 76.2781 25.5815 76.4494 25.4344C76.6334 25.275 76.7747 25.0849 76.8727 24.8643C76.9827 24.6436 77.0381 24.4045 77.0381 24.147V23.5033C76.3387 23.5033 75.7381 23.5524 75.2347 23.6505C74.7321 23.7485 74.3461 23.9019 74.0761 24.1103C73.8061 24.3187 73.6714 24.5823 73.6714 24.9011C73.6714 25.134 73.7261 25.3301 73.8367 25.4895C73.9594 25.6367 74.1187 25.7471 74.3147 25.8206C74.5114 25.8819 74.7441 25.9125 75.0141 25.9125ZM85.5607 27.9907C84.5181 27.9907 83.7087 27.7026 83.1321 27.1263C82.5681 26.5501 82.2854 25.6673 82.2854 24.4781V18.0781H85.3027V24.0551C85.3027 24.3125 85.3334 24.5393 85.3947 24.7355C85.4687 24.9317 85.5667 25.0973 85.6894 25.2321C85.8121 25.3669 85.9654 25.4651 86.1494 25.5263C86.3454 25.5876 86.5541 25.6183 86.7747 25.6183C87.1307 25.6183 87.4434 25.5386 87.7134 25.3792C87.9834 25.2076 88.1981 24.9807 88.3567 24.6987C88.5167 24.4045 88.5961 24.0857 88.5961 23.7425V18.0781H91.6134V27.77H89.1301L88.9461 26.3907H88.8167C88.5961 26.7095 88.3141 26.9915 87.9707 27.2367C87.6394 27.4819 87.2654 27.6658 86.8481 27.7884C86.4434 27.9233 86.0147 27.9907 85.5607 27.9907ZM97.2607 27.9907C96.4387 27.9907 95.7274 27.8068 95.1267 27.439C94.5254 27.0712 94.0654 26.5133 93.7467 25.7654C93.4274 25.0175 93.2681 24.0612 93.2681 22.8965C93.2681 21.7562 93.4274 20.8183 93.7467 20.0827C94.0774 19.3347 94.5374 18.7769 95.1267 18.4091C95.7154 18.0413 96.4081 17.8574 97.2054 17.8574C97.5854 17.8574 97.9474 17.9003 98.2907 17.9861C98.6467 18.0719 98.9594 18.2068 99.2294 18.3907C99.5114 18.5746 99.7507 18.8014 99.9467 19.0712H100.057V14.4551H103.075V27.77H100.609L100.389 26.4275H100.259C99.9287 26.9547 99.5054 27.347 98.9901 27.6045C98.4747 27.862 97.8981 27.9907 97.2607 27.9907ZM98.1987 25.6367C98.6407 25.6367 98.9961 25.5386 99.2661 25.3425C99.5481 25.134 99.7507 24.8459 99.8734 24.4781C100.008 24.098 100.076 23.6566 100.076 23.1539V22.7125C100.076 22.3447 100.039 22.0076 99.9654 21.7011C99.8921 21.3945 99.7814 21.1309 99.6341 20.9103C99.4867 20.6895 99.2907 20.5179 99.0454 20.3953C98.8121 20.2727 98.5301 20.2114 98.1987 20.2114C97.7447 20.2114 97.3774 20.3033 97.0954 20.4873C96.8254 20.6712 96.6287 20.9409 96.5061 21.2965C96.3834 21.652 96.3221 22.0934 96.3221 22.6206V23.2643C96.3221 23.7792 96.3834 24.2145 96.5061 24.57C96.6287 24.9255 96.8254 25.1953 97.0954 25.3792C97.3774 25.5509 97.7447 25.6367 98.1987 25.6367Z" fill="white"/>
<path d="M50.7192 35.5384C50.504 35.5384 50.3117 35.4918 50.1424 35.3986C49.9796 35.2996 49.8485 35.1686 49.7492 35.0055C49.6562 34.8366 49.6094 34.6444 49.6094 34.4289C49.6094 34.2076 49.6562 34.0154 49.7492 33.8524C49.8485 33.6835 49.9796 33.5524 50.1424 33.4592C50.3117 33.3603 50.504 33.3108 50.7192 33.3108C50.941 33.3108 51.1332 33.3603 51.296 33.4592C51.4653 33.5524 51.5964 33.6835 51.6893 33.8524C51.7887 34.0154 51.8379 34.2076 51.8379 34.4289C51.8379 34.6444 51.7887 34.8366 51.6893 35.0055C51.5964 35.1686 51.4653 35.2996 51.296 35.3986C51.1332 35.4918 50.941 35.5384 50.7192 35.5384ZM57.9928 37.53C57.381 37.53 56.8594 37.4224 56.4284 37.2068C56.003 36.9856 55.6768 36.6449 55.4496 36.1848C55.2224 35.7247 55.1088 35.1394 55.1088 34.4289C55.1088 33.3806 55.3622 32.6032 55.8691 32.0965C56.3815 31.584 57.0926 31.3278 58.0015 31.3278C58.5024 31.3278 58.9509 31.4122 59.3474 31.5811C59.7494 31.75 60.064 32.0033 60.2912 32.3411C60.524 32.673 60.6408 33.0982 60.6408 33.6165H59.6445C59.6445 33.2962 59.5774 33.0283 59.4435 32.8128C59.3092 32.5973 59.117 32.4343 58.8667 32.3236C58.622 32.213 58.3364 32.1576 58.0102 32.1576C57.6022 32.1576 57.2554 32.2392 56.9702 32.4022C56.6906 32.5595 56.4776 32.7982 56.3323 33.1186C56.1924 33.4389 56.1225 33.8465 56.1225 34.3416V34.5338C56.1225 35.0288 56.1924 35.4364 56.3323 35.7567C56.4776 36.077 56.6906 36.3158 56.9702 36.473C57.2499 36.6244 57.5963 36.7002 58.0102 36.7002C58.3479 36.7002 58.6422 36.6478 58.893 36.543C59.1432 36.4323 59.3354 36.2692 59.4698 36.0538C59.6096 35.8382 59.6795 35.5704 59.6795 35.25H60.6408C60.6408 35.7684 60.524 36.1964 60.2912 36.5342C60.064 36.872 59.7494 37.1224 59.3474 37.2855C58.9509 37.4486 58.4996 37.53 57.9928 37.53ZM63.9144 37.4252V31.4326H64.8932V36.5779H67.882V37.4252H63.9144ZM73.3746 37.53C72.7573 37.53 72.2213 37.4165 71.7666 37.1894C71.318 36.9622 70.9713 36.6186 70.7266 36.1586C70.488 35.6985 70.368 35.1219 70.368 34.4289C70.368 33.73 70.488 33.1535 70.7266 32.6992C70.9713 32.2392 71.318 31.8956 71.7666 31.6684C72.2213 31.4413 72.7573 31.3278 73.3746 31.3278C74.004 31.3278 74.5433 31.4413 74.9913 31.6684C75.4406 31.8956 75.784 32.2392 76.0226 32.6992C76.2673 33.1535 76.39 33.73 76.39 34.4289C76.39 35.1219 76.2673 35.6985 76.0226 36.1586C75.784 36.6186 75.4406 36.9622 74.9913 37.1894C74.5433 37.4165 74.004 37.53 73.3746 37.53ZM73.3746 36.7002C73.6953 36.7002 73.978 36.6565 74.2226 36.5692C74.4733 36.4818 74.6826 36.3478 74.8513 36.1673C75.0266 35.9868 75.1573 35.7596 75.2446 35.4859C75.338 35.2122 75.3846 34.8948 75.3846 34.5338V34.3416C75.3846 33.9688 75.338 33.6456 75.2446 33.3719C75.1573 33.0982 75.0266 32.8711 74.8513 32.6905C74.6826 32.51 74.4733 32.376 74.2226 32.2887C73.978 32.2013 73.6953 32.1576 73.3746 32.1576C73.06 32.1576 72.7773 32.2013 72.5266 32.2887C72.282 32.376 72.0726 32.51 71.898 32.6905C71.7286 32.8711 71.6006 33.0982 71.5133 33.3719C71.426 33.6456 71.382 33.9688 71.382 34.3416V34.5338C71.382 34.8948 71.426 35.2122 71.5133 35.4859C71.6006 35.7596 71.7286 35.9868 71.898 36.1673C72.0726 36.3478 72.282 36.4818 72.5266 36.5692C72.7773 36.6565 73.06 36.7002 73.3746 36.7002ZM82.1593 37.53C81.6466 37.53 81.204 37.4486 80.8306 37.2855C80.458 37.1166 80.1726 36.8574 79.9746 36.508C79.7766 36.1586 79.6773 35.716 79.6773 35.1802V31.4326H80.656V35.2064C80.656 35.7014 80.7873 36.0741 81.0493 36.3246C81.3113 36.575 81.682 36.7002 82.1593 36.7002C82.6433 36.7002 83.0186 36.575 83.2866 36.3246C83.5606 36.0741 83.6973 35.7014 83.6973 35.2064V31.4326H84.676V35.1802C84.676 35.716 84.5746 36.1586 84.37 36.508C84.1726 36.8574 83.884 37.1166 83.5053 37.2855C83.1326 37.4486 82.6833 37.53 82.1593 37.53ZM88.2466 37.4252V31.4326H90.5626C91.18 31.4326 91.708 31.5403 92.1446 31.7558C92.582 31.9655 92.9166 32.2916 93.15 32.7342C93.3886 33.171 93.508 33.7359 93.508 34.4289C93.508 35.1161 93.3886 35.681 93.15 36.1236C92.9166 36.5662 92.582 36.8952 92.1446 37.1108C91.708 37.3204 91.18 37.4252 90.5626 37.4252H88.2466ZM89.226 36.5866H90.554C90.8626 36.5866 91.1366 36.5458 91.3753 36.4643C91.6206 36.3828 91.824 36.2576 91.9873 36.0887C92.156 35.9198 92.2813 35.7072 92.3633 35.451C92.4506 35.1889 92.494 34.8803 92.494 34.525V34.3416C92.494 33.9805 92.4506 33.6718 92.3633 33.4156C92.2813 33.1535 92.156 32.938 91.9873 32.7692C91.824 32.6003 91.6206 32.475 91.3753 32.3935C91.1366 32.312 90.8626 32.2712 90.554 32.2712H89.226V36.5866Z" fill="white"/>
</svg>
