<svg width="74" height="28" viewBox="0 0 74 28" fill="none" xmlns="http://www.w3.org/2000/svg">
<path d="M2.70291 8.57716C4.50137 10.9524 6.16957 13.4235 7.70004 15.9795H10.6462C10.5215 15.3842 10.4301 14.7825 10.3725 14.1772C10.292 14.0355 10.2179 13.8939 10.131 13.7523C6.91119 8.53852 1.6436 4.16474 0.426514 4.9114C-0.790567 5.65807 0.6841 12.0144 3.74291 17.167C4.62073 16.4724 5.69058 16.0635 6.80815 15.9955C5.31519 13.5936 3.94505 11.1177 2.70291 8.57716Z" fill="white"/>
<path d="M20.1296 15.9634C21.6637 13.4127 23.335 10.947 25.1364 8.57719C23.8942 11.1137 22.5218 13.5844 21.0247 15.9795C22.1425 16.0462 23.2127 16.4552 24.0899 17.151C27.1487 12.0016 28.5976 5.62595 27.4063 4.89538C26.215 4.16479 20.9056 8.5225 17.689 13.7363C17.602 13.8779 17.5312 14.0195 17.4475 14.1611C17.3898 14.7665 17.2985 15.3682 17.1738 15.9634H20.1296Z" fill="white"/>
<path d="M13.9145 0C12.4849 0 10.2922 6.48825 10.2922 12.6129C10.2948 13.13 10.3237 13.6467 10.3792 14.1609C10.4347 14.7662 10.5239 15.3679 10.6464 15.9632H13.5925C13.4245 12.0813 13.5322 8.19224 13.9145 4.32551C14.2969 8.19224 14.4045 12.0813 14.2365 15.9632H17.1826C17.3073 15.368 17.3986 14.7663 17.4563 14.1609C17.5117 13.6467 17.5407 13.13 17.5432 12.6129C17.5335 6.48825 15.3409 0 13.9145 0Z" fill="white"/>
<path d="M25.0282 21.4635C25.0278 21.3087 25.0192 21.154 25.0025 21.0001C25.0025 20.9486 25.0025 20.8971 24.9767 20.8488C24.9652 20.7407 24.948 20.6333 24.9252 20.527C24.9252 20.4691 24.8962 20.4143 24.8801 20.3564C24.864 20.2985 24.8318 20.173 24.8028 20.0828L24.7416 19.9155C24.7062 19.8286 24.674 19.7417 24.6354 19.658L24.5581 19.5003C24.5162 19.4166 24.4712 19.333 24.4229 19.2525L24.336 19.1109C24.2812 19.0272 24.2233 18.9467 24.1653 18.8663L24.0784 18.7472C24.0075 18.6614 23.9335 18.5777 23.8562 18.4962C23.8332 18.4679 23.8084 18.441 23.7821 18.4157C23.6811 18.3084 23.5735 18.2074 23.4602 18.1132C22.6775 17.4612 21.6906 17.1046 20.6718 17.1058H7.14868C6.56815 17.1051 5.9934 17.221 5.45855 17.4466C4.92375 17.6721 4.43967 18.0028 4.03514 18.4189L3.96108 18.4994C3.88381 18.5809 3.80975 18.6646 3.73892 18.7504L3.65198 18.8695C3.59402 18.95 3.53607 19.0304 3.48133 19.1141C3.42659 19.1978 3.42337 19.2074 3.39762 19.2557C3.37186 19.304 3.30102 19.4199 3.25917 19.5035C3.21729 19.5872 3.20764 19.6065 3.1851 19.6612C3.16256 19.716 3.11104 19.8318 3.07562 19.9187C3.04021 20.0056 3.03377 20.0282 3.01767 20.0861C2.98597 20.1768 2.95911 20.2692 2.93717 20.3628C2.92107 20.4175 2.90498 20.4723 2.8921 20.5302C2.87922 20.5882 2.85346 20.7362 2.84058 20.8521C2.84058 20.9035 2.82126 20.9518 2.81804 21.0033C2.80017 21.1604 2.7905 21.3183 2.78906 21.4764V23.4686C2.7909 23.905 2.85708 24.3388 2.98547 24.756C3.197 25.4288 3.56817 26.0405 4.06734 26.5389C4.16715 26.6387 4.27018 26.7321 4.38931 26.8222C4.54 26.9395 4.69807 27.047 4.86262 27.144C5.01648 27.2416 5.17673 27.3287 5.34235 27.4047C5.42929 27.4465 5.51945 27.4819 5.61283 27.5173C6.10708 27.7075 6.63194 27.8057 7.16156 27.807H20.6847C21.5533 27.8085 22.4023 27.5496 23.1221 27.0635C23.5847 26.7475 23.9844 26.348 24.3005 25.8856C24.7868 25.1662 25.0459 24.3175 25.0443 23.4493V21.4635H25.0282ZM8.39151 23.9674C8.09475 23.9674 7.80463 23.8795 7.5579 23.7147C7.31117 23.5499 7.11886 23.3156 7.00532 23.0416C6.89173 22.7676 6.86201 22.466 6.91992 22.1751C6.97779 21.8841 7.12068 21.6169 7.33054 21.4072C7.5404 21.1974 7.80775 21.0546 8.09877 20.9967C8.38983 20.9389 8.69153 20.9685 8.96569 21.0821C9.23986 21.1956 9.47422 21.3878 9.63905 21.6345C9.80397 21.8811 9.89193 22.171 9.89193 22.4677C9.89193 22.8654 9.73387 23.2469 9.45247 23.5282C9.17112 23.8094 8.78943 23.9674 8.39151 23.9674ZM19.9828 23.356H17.7966C17.5506 23.356 17.3147 23.2583 17.1409 23.0845C16.9669 22.9107 16.8693 22.6749 16.8693 22.4291C16.8693 22.1832 16.9669 21.9475 17.1409 21.7736C17.3147 21.5998 17.5506 21.5022 17.7966 21.5022H19.9828C20.2287 21.5022 20.4645 21.5998 20.6385 21.7736C20.8124 21.9475 20.9101 22.1832 20.9101 22.4291C20.9101 22.6749 20.8124 22.9107 20.6385 23.0845C20.4645 23.2583 20.2287 23.356 19.9828 23.356Z" fill="white"/>
<path d="M20.0179 19.3104H17.8307C17.3188 19.3104 16.9038 19.7252 16.9038 20.2369C16.9038 20.7487 17.3188 21.1635 17.8307 21.1635H20.0179C20.5299 21.1635 20.9449 20.7487 20.9449 20.2369C20.9449 19.7252 20.5299 19.3104 20.0179 19.3104Z" fill="white"/>
<path d="M35.2261 19.439V10.5949H37.5315V14.5213L41.0346 10.5949H43.8938L40.5967 14.2123L43.9582 19.439H41.2278L38.9997 15.7829L37.5315 17.1346V19.439H35.2261ZM44.841 19.439V12.6546H46.5797L46.7344 13.6974H46.8244C46.9276 13.4657 47.0517 13.2597 47.1978 13.0794C47.3527 12.8906 47.537 12.7447 47.7517 12.6418C47.9748 12.5388 48.2198 12.4873 48.4858 12.4873C48.6402 12.4873 48.7821 12.5044 48.9109 12.5388C49.0397 12.5645 49.134 12.5945 49.1942 12.6289V14.4698H48.5245C48.258 14.4698 48.0224 14.5084 47.8161 14.5856C47.6182 14.6543 47.4554 14.7659 47.3266 14.9204C47.1978 15.0663 47.103 15.2465 47.0433 15.4611C46.9831 15.6756 46.9532 15.9245 46.9532 16.2077V19.439H44.841ZM51.7244 19.5935C51.4412 19.5935 51.1616 19.5634 50.8872 19.5034C50.6208 19.4519 50.3762 19.3575 50.1532 19.2202C49.9385 19.0742 49.7668 18.8768 49.638 18.628C49.5092 18.3791 49.4448 18.0658 49.4448 17.6882C49.4448 17.199 49.5479 16.7999 49.7537 16.491C49.96 16.182 50.2563 15.9417 50.6422 15.77C51.0375 15.5898 51.5098 15.4654 52.059 15.3967C52.6172 15.3281 53.2397 15.2937 53.9266 15.2937V14.8689C53.9266 14.6715 53.8879 14.5084 53.8109 14.3797C53.7334 14.2424 53.6177 14.1394 53.4632 14.0707C53.3172 13.9935 53.1193 13.9549 52.8706 13.9549C52.6475 13.9549 52.4496 13.9806 52.2779 14.0321C52.115 14.0836 51.9904 14.1608 51.9046 14.2638C51.8187 14.3582 51.7758 14.4741 51.7758 14.6114V14.7273H49.715C49.7066 14.6844 49.7024 14.65 49.7024 14.6243C49.7024 14.5899 49.7024 14.5471 49.7024 14.4955C49.7024 14.0922 49.827 13.7403 50.0757 13.4399C50.3333 13.1395 50.6982 12.9078 51.1705 12.7447C51.6428 12.5817 52.2135 12.5002 52.8836 12.5002C53.5104 12.5002 54.0554 12.5774 54.5193 12.7319C54.9916 12.8864 55.3602 13.1224 55.6267 13.4399C55.9016 13.7575 56.0388 14.1737 56.0388 14.6886V17.5852C56.0388 17.7311 56.0775 17.8469 56.155 17.9328C56.2408 18.0186 56.344 18.0615 56.4639 18.0615H56.9016V19.3617C56.8074 19.4046 56.6571 19.4519 56.4508 19.5034C56.2534 19.5634 56.0131 19.5935 55.7298 19.5935C55.4377 19.5935 55.1801 19.5549 54.957 19.4776C54.7424 19.409 54.5618 19.3103 54.4162 19.1815C54.2785 19.0442 54.1842 18.8854 54.1329 18.7052H54.0424C53.8795 18.8768 53.6863 19.0313 53.4632 19.1686C53.2481 19.306 52.9952 19.409 52.703 19.4776C52.4198 19.5549 52.0936 19.5935 51.7244 19.5935ZM52.5098 18.1388C52.7161 18.1388 52.9051 18.1088 53.0768 18.0486C53.2481 17.9886 53.3946 17.9071 53.5146 17.8041C53.6434 17.6925 53.7423 17.5594 53.8109 17.405C53.8879 17.2505 53.9266 17.0832 53.9266 16.9029V16.4523C53.4371 16.4523 53.0166 16.4867 52.6643 16.5553C52.3124 16.624 52.0422 16.7313 51.8532 16.8772C51.6642 17.0231 51.57 17.2076 51.57 17.4307C51.57 17.5938 51.6082 17.7311 51.6857 17.8427C51.7716 17.9456 51.8831 18.0229 52.0203 18.0744C52.158 18.1173 52.3208 18.1388 52.5098 18.1388ZM59.8925 19.5935C59.1626 19.5935 58.5961 19.3918 58.1924 18.9884C57.7976 18.5851 57.5998 17.9671 57.5998 17.1346V12.6546H59.7119V16.8385C59.7119 17.0188 59.7334 17.1775 59.7763 17.3149C59.8281 17.4522 59.8967 17.5681 59.9826 17.6624C60.0684 17.7568 60.1758 17.8255 60.3046 17.8684C60.4418 17.9113 60.5878 17.9328 60.7423 17.9328C60.9915 17.9328 61.2104 17.877 61.3994 17.7654C61.5884 17.6453 61.7386 17.4865 61.8497 17.2891C61.9617 17.0832 62.0172 16.86 62.0172 16.6197V12.6546H64.1294V19.439H62.391L62.2622 18.4735H62.1717C62.0172 18.6966 61.8198 18.894 61.5795 19.0657C61.3476 19.2373 61.0858 19.366 60.7936 19.4519C60.5104 19.5463 60.2103 19.5935 59.8925 19.5935ZM68.0825 19.5935C67.5071 19.5935 67.0092 19.4647 66.5887 19.2073C66.1678 18.9498 65.8458 18.5593 65.6227 18.0358C65.3992 17.5123 65.2876 16.8428 65.2876 16.0275C65.2876 15.2293 65.3992 14.5728 65.6227 14.0579C65.8542 13.5343 66.1762 13.1438 66.5887 12.8864C67.0008 12.6289 67.4856 12.5002 68.0438 12.5002C68.3098 12.5002 68.5632 12.5302 68.8035 12.5903C69.0527 12.6503 69.2716 12.7447 69.4606 12.8735C69.658 13.0022 69.8255 13.161 69.9627 13.3498H70.0402V10.1185H72.1523V19.439H70.4266L70.2721 18.4992H70.1816C69.9501 18.8683 69.6538 19.1429 69.293 19.3232C68.9323 19.5034 68.5286 19.5935 68.0825 19.5935ZM68.7391 17.9457C69.0485 17.9457 69.2972 17.877 69.4862 17.7397C69.6836 17.5938 69.8255 17.3921 69.9114 17.1346C70.0056 16.8686 70.0532 16.5596 70.0532 16.2077V15.8988C70.0532 15.6413 70.0271 15.4053 69.9758 15.1907C69.9244 14.9762 69.847 14.7916 69.7438 14.6372C69.6407 14.4827 69.5035 14.3625 69.3317 14.2767C69.1684 14.1909 68.971 14.148 68.7391 14.148C68.4213 14.148 68.1642 14.2123 67.9668 14.3411C67.7778 14.4698 67.6401 14.6586 67.5542 14.9075C67.4684 15.1564 67.4254 15.4654 67.4254 15.8344V16.285C67.4254 16.6454 67.4684 16.9501 67.5542 17.199C67.6401 17.4479 67.7778 17.6367 67.9668 17.7654C68.1642 17.8856 68.4213 17.9457 68.7391 17.9457Z" fill="white"/>
<path d="M35.5035 24.8769C35.3528 24.8769 35.2182 24.8442 35.0997 24.779C34.9857 24.7097 34.894 24.618 34.8244 24.5039C34.7594 24.3856 34.7266 24.2511 34.7266 24.1002C34.7266 23.9453 34.7594 23.8108 34.8244 23.6967C34.894 23.5785 34.9857 23.4867 35.0997 23.4215C35.2182 23.3522 35.3528 23.3175 35.5035 23.3175C35.6587 23.3175 35.7933 23.3522 35.9072 23.4215C36.0257 23.4867 36.1175 23.5785 36.1825 23.6967C36.2521 23.8108 36.2865 23.9453 36.2865 24.1002C36.2865 24.2511 36.2521 24.3856 36.1825 24.5039C36.1175 24.618 36.0257 24.7097 35.9072 24.779C35.7933 24.8442 35.6587 24.8769 35.5035 24.8769ZM40.5949 26.271C40.1667 26.271 39.8016 26.1957 39.4999 26.0448C39.2021 25.8899 38.9738 25.6514 38.8147 25.3293C38.6557 25.0073 38.5761 24.5976 38.5761 24.1002C38.5761 23.3664 38.7535 22.8222 39.1084 22.4676C39.4671 22.1088 39.9648 21.9294 40.6011 21.9294C40.9517 21.9294 41.2656 21.9886 41.5432 22.1068C41.8246 22.225 42.0448 22.4023 42.2039 22.6388C42.3668 22.8711 42.4486 23.1688 42.4486 23.5316H41.7512C41.7512 23.3073 41.7042 23.1198 41.6105 22.969C41.5165 22.8181 41.3819 22.704 41.2067 22.6266C41.0354 22.5491 40.8355 22.5104 40.6072 22.5104C40.3216 22.5104 40.0788 22.5674 39.8792 22.6816C39.6834 22.7917 39.5343 22.9588 39.4326 23.183C39.3347 23.4072 39.2858 23.6926 39.2858 24.0391V24.1736C39.2858 24.5201 39.3347 24.8055 39.4326 25.0297C39.5343 25.2539 39.6834 25.4211 39.8792 25.5311C40.0749 25.6371 40.3174 25.6901 40.6072 25.6901C40.8435 25.6901 41.0496 25.6534 41.2251 25.5801C41.4002 25.5026 41.5348 25.3885 41.6288 25.2376C41.7267 25.0868 41.7757 24.8993 41.7757 24.675H42.4486C42.4486 25.0379 42.3668 25.3375 42.2039 25.574C42.0448 25.8104 41.8246 25.9857 41.5432 26.0999C41.2656 26.214 40.9497 26.271 40.5949 26.271ZM44.7401 26.1977V22.0028H45.4253V25.6045H47.5174V26.1977H44.7401ZM51.3622 26.271C50.9301 26.271 50.5549 26.1916 50.2366 26.0326C49.9226 25.8736 49.6799 25.6331 49.5086 25.311C49.3416 24.989 49.2576 24.5853 49.2576 24.1002C49.2576 23.611 49.3416 23.2075 49.5086 22.8895C49.6799 22.5674 49.9226 22.3269 50.2366 22.1679C50.5549 22.0089 50.9301 21.9294 51.3622 21.9294C51.8028 21.9294 52.1803 22.0089 52.4939 22.1679C52.8084 22.3269 53.0488 22.5674 53.2158 22.8895C53.3871 23.2075 53.473 23.611 53.473 24.1002C53.473 24.5853 53.3871 24.989 53.2158 25.311C53.0488 25.6331 52.8084 25.8736 52.4939 26.0326C52.1803 26.1916 51.8028 26.271 51.3622 26.271ZM51.3622 25.6901C51.5867 25.6901 51.7846 25.6596 51.9558 25.5984C52.1313 25.5372 52.2778 25.4435 52.3959 25.3171C52.5186 25.1907 52.6101 25.0318 52.6712 24.8401C52.7366 24.6486 52.7692 24.4264 52.7692 24.1736V24.0391C52.7692 23.7782 52.7366 23.552 52.6712 23.3603C52.6101 23.1688 52.5186 23.0098 52.3959 22.8834C52.2778 22.757 52.1313 22.6632 51.9558 22.6021C51.7846 22.5409 51.5867 22.5104 51.3622 22.5104C51.142 22.5104 50.9441 22.5409 50.7686 22.6021C50.5974 22.6632 50.4508 22.757 50.3286 22.8834C50.21 23.0098 50.1204 23.1688 50.0593 23.3603C49.9982 23.552 49.9674 23.7782 49.9674 24.0391V24.1736C49.9674 24.4264 49.9982 24.6486 50.0593 24.8401C50.1204 25.0318 50.21 25.1907 50.3286 25.3171C50.4508 25.4435 50.5974 25.5372 50.7686 25.5984C50.9441 25.6596 51.142 25.6901 51.3622 25.6901ZM57.5115 26.271C57.1526 26.271 56.8428 26.214 56.5814 26.0999C56.3206 25.9816 56.1208 25.8002 55.9822 25.5556C55.8436 25.311 55.7741 25.0012 55.7741 24.6261V22.0028H56.4592V24.6445C56.4592 24.991 56.5511 25.2519 56.7345 25.4272C56.9179 25.6025 57.1774 25.6901 57.5115 25.6901C57.8503 25.6901 58.113 25.6025 58.3006 25.4272C58.4924 25.2519 58.5881 24.991 58.5881 24.6445V22.0028H59.2732V24.6261C59.2732 25.0012 59.2022 25.311 59.059 25.5556C58.9208 25.8002 58.7188 25.9816 58.4537 26.0999C58.1928 26.214 57.8783 26.271 57.5115 26.271ZM61.7726 26.1977V22.0028H63.3938C63.826 22.0028 64.1956 22.0782 64.5012 22.2291C64.8074 22.3759 65.0416 22.6041 65.205 22.914C65.372 23.2197 65.4556 23.6151 65.4556 24.1002C65.4556 24.5813 65.372 24.9767 65.205 25.2866C65.0416 25.5964 64.8074 25.8267 64.5012 25.9775C64.1956 26.1243 63.826 26.1977 63.3938 26.1977H61.7726ZM62.4582 25.6107H63.3878C63.6038 25.6107 63.7956 25.5821 63.9627 25.525C64.1344 25.4679 64.2768 25.3803 64.3911 25.2621C64.5092 25.1439 64.5969 24.9951 64.6543 24.8157C64.7154 24.6322 64.7458 24.4162 64.7458 24.1675V24.0391C64.7458 23.7864 64.7154 23.5703 64.6543 23.3909C64.5969 23.2075 64.5092 23.0566 64.3911 22.9384C64.2768 22.8202 64.1344 22.7325 63.9627 22.6755C63.7956 22.6184 63.6038 22.5899 63.3878 22.5899H62.4582V25.6107Z" fill="white"/>
</svg>
